<svg xmlns="http://www.w3.org/2000/svg" xmlns:xlink="http://www.w3.org/1999/xlink" width="52" height="74" version="1.1" viewBox="0 0 52 74"><title>Pin</title><defs><circle id="path-1" cx="26.5" cy="25.5" r="22.5"/></defs><g id="Page-1" fill="none" fill-rule="evenodd" stroke="none" stroke-width="1"><g id="Pin"><g id="placeholder" fill-rule="nonzero"><path id="Shape" fill="#FD003A" d="M26,0 C11.6563778,0 0,11.6636768 0,26.0156359 C0,30.8718879 1.34362222,35.5982063 3.90014444,39.6739893 L24.2374889,72.9760266 C24.5844444,73.5396987 25.1044444,73.8867184 25.7112556,73.9734372 C26.5343,74.1033708 27.4447333,73.7566402 27.9212556,72.9328118 L48.3168111,39.3269696 C50.7431889,35.3380499 52,30.6985949 52,26.0156359 C52,11.6636768 40.3436222,0 26,0 Z M26,39 C18.7202889,39 13,33.1066667 13,26 C13,18.8498556 18.8498556,13 26,13 C33.1501444,13 39,18.8498556 39,26 C39,33.0633333 33.3665222,39 26,39 Z"/><path id="Path" fill="#E50027" d="M26,0 L26,13.0079363 C33.1501444,13.0079363 39,18.8613631 39,26.0158726 C39,33.083518 33.3665222,39.0238089 26,39.0238089 L26,74 C26.7394111,74.0166028 27.4997667,73.6619197 27.9211111,72.9334753 L48.3166667,39.3273274 C50.7431889,35.3383714 52,30.6988742 52,26.0158726 C52,11.6637829 40.3436222,0 26,0 Z"/></g><circle id="Oval" cx="26.5" cy="25.5" r="22.5" fill="#FFF"/><mask id="mask-2" fill="#fff"><use xlink:href="#path-1"/></mask><use id="Oval-Copy-2" fill="#FFF" xlink:href="#path-1"/><g id="delivery-man" fill-rule="nonzero" mask="url(#mask-2)"><g id="Path" transform="translate(11.000000, 7.000000)"><path fill="#FF6A4D" d="M24.2909641,26.8678789 C24.0637897,26.8188554 20.4963256,26.0490235 20.2692308,26 L17.8846154,26.7977231 L15.5,26.7977231 L13.1153846,26.7977231 L10.7307692,26.0018822 L6.7090359,26.8678789 C2.82123846,27.7038455 0,31.4085008 0,35.6770551 L0,41 L15.5,41 L31,41 L31,35.6770551 C31,31.4085008 28.1787615,27.7038455 24.2909641,26.8678789 Z"/><path fill="#E64D2E" d="M31,35.6770551 C31,31.4084153 28.0877538,27.7038455 24.0745436,26.8678789 C23.840041,26.8188554 20.1574974,26.0490235 19.9230769,26 L17.4615385,26.7977231 L15,26.7977231 L15,41 L31,41 L31,35.6770551 Z"/><path fill="#F2F9FF" d="M17.970075,26 L16.5,26.0169018 L14.858625,26.0356644 L12,26.6269189 L12,27.348116 C12,29.9137076 14.018175,32 16.5,32 C18.981825,32 21,29.9137076 21,27.348116 L21,26.6252132 L17.970075,26 Z"/><path fill="#DFE7F4" d="M21,27.348116 L21,26.6252132 L17.6334167,26 L16,26.0169018 L16,32 C18.7575833,32 21,29.9137076 21,27.348116 Z"/><path fill="#FFE1BA" d="M22.5000381,9 L17,9 L11.2857143,9 L9,10.2304688 L9,17.6132812 C9,21.5089453 11.4176762,24.844418 14.7142857,25.9086094 L14.7142857,27.5390625 C14.7142857,28.8980742 15.7376,30 17,30 C18.2624,30 19.2857143,28.8980742 19.2857143,27.5390625 L19.2857143,25.9086094 C22.5823238,24.844418 25,21.5089453 25,17.6132812 L25,10.2304688 L22.5000381,9 Z"/><path fill="#FFBFAB" d="M17.5714286,27.5390625 L17.5714286,25.9086094 C21.2801143,24.844418 24,21.5089453 24,17.6132812 L24,10.2304688 L21.1874571,9 L15,9 L15,30 C16.4202,30 17.5714286,28.8980742 17.5714286,27.5390625 Z"/><polygon fill="#F2F9FF" points="6 34 11 34 11 36 6 36"/><path fill="#474F54" d="M20.5000381,9 L17,9 L12.4285714,9 L9,10.2 C10.4750476,13.24176 13.9433905,15 17,15 C20.0669714,15 23.5249524,13.22944 25,10.2 L20.5000381,9 Z"/><path fill="#32393F" d="M24,10.2 L18.9374571,9 L15,9 L15,15 C18.4503429,15 22.3405714,13.22944 24,10.2 Z"/><path fill="#FF6A4D" d="M17,0 C12.5817143,0 9,3.83044444 9,8.55555556 L9,11 L17,11 L25,11 L25,8.55555556 C25,3.83044444 21.4182857,0 17,0 Z"/><path fill="#E64D2E" d="M24,8.55555556 C24,3.83044444 19.9705714,0 15,0 L15,11 L24,11 L24,8.55555556 Z"/></g></g></g></g></svg>