<svg xmlns="http://www.w3.org/2000/svg" xmlns:xlink="http://www.w3.org/1999/xlink" id="Layer_1" version="1.1" viewBox="0 0 512 512" xml:space="preserve" style="enable-background:new 0 0 512 512"><style type="text/css">.st0{fill:#eeedf2}.st1{fill:#d3d5e7}.st11{fill:none;stroke-linecap:round;stroke-miterlimit:10}.st4{stroke-width:3}.st4,.st5,.st9{fill:none;stroke:#1e247e;stroke-linecap:round;stroke-miterlimit:10}.st5{stroke-width:2.5}.st9{stroke-width:6}.st11{stroke:#fff;stroke-width:7}.st16{fill:#f0c330;stroke:#1e247e;stroke-width:6}.st16,.st17,.st18,.st19{stroke-miterlimit:10}.st17{fill:#da867d;stroke:#1e247e;stroke-width:6}.st18,.st19{fill:none;stroke-linecap:round}.st18{stroke:#1e247e;stroke-width:5}.st19{stroke:#d3d5e7}.st19,.st21,.st22{stroke-width:6}.st21{fill:#efc230;stroke:#d3d5e7;stroke-linecap:round;stroke-miterlimit:10}.st22{fill:#fff}.st22,.st23,.st24,.st25,.st26{stroke:#1e247e;stroke-miterlimit:10}.st23{fill:none;stroke-width:4;stroke-linecap:round}.st24,.st25{stroke-width:6}.st24{fill:#efc230;stroke-linecap:round}.st25{fill:#69aef8}.st26{fill:#fff;stroke-width:5;stroke-linecap:round}</style><g><g id="Discover"><circle id="Background_14_" cx="256" cy="258.7" r="215.6" class="st0"/><g id="Hot_air_balloon"><g id="Shadows_1_"><path id="Basket_shadow" d="M285.5,408.9v30.5c0,5.8-4.7,10.5-10.5,10.5h-29.1c-5.8,0-10.5-4.7-10.5-10.5v-30.5 H285.5z" class="st1"/><path id="Balloon_shadow" d="M393.4,248.8c0,53.4-31.4,99.4-76.8,120.6h0c-11.9,5.6-24.7,9.4-38.2,11.2 c-5.7,0.8-11.5,1.2-17.3,1.2c-0.2,0-0.4,0-0.6,0c-0.2,0-0.4,0-0.6,0c-5.9,0-11.7-0.4-17.4-1.2c-13.5-1.8-26.3-5.6-38.2-11.2 c-45.4-21.2-76.8-67.2-76.8-120.6c0-51.9,29.7-96.9,73.1-118.8c12.9-6.5,27-11,41.8-13c5.7-0.8,11.5-1.2,17.5-1.2 c0.2,0,0.4,0,0.6,0c0.2,0,0.4,0,0.6,0c5.9,0,11.7,0.4,17.4,1.2c14.9,2,29,6.5,41.9,13h0C363.7,152,393.4,196.9,393.4,248.8z" class="st1"/><g id="Rigging_shadow"><line id="Left_34_" x1="239.9" x2="198.8" y1="414.9" y2="360.9" class="st19"/><line id="Middle_36_" x1="260.4" x2="260.4" y1="380.4" y2="408.9" class="st21"/><line id="Right_33_" x1="280.9" x2="322" y1="414.9" y2="360.9" class="st19"/></g></g><g id="Basket"><path id="Shape_54_" d="M270.6,444.8h-29.1c-5.8,0-10.5-4.7-10.5-10.5v-30.5h50.1v30.5 C281.1,440.1,276.4,444.8,270.6,444.8z" class="st22"/><path id="Line_16_" d="M246,435.7c-3.5,0-6.4-2.9-6.4-6.4" class="st23"/></g><g id="Rigging"><line id="Left_33_" x1="230.9" x2="199.8" y1="403.8" y2="362.9" class="st9"/><line id="Middle_35_" x1="256" x2="256" y1="375.3" y2="403.8" class="st24"/><line id="RIght_4_" x1="281.1" x2="312.2" y1="403.8" y2="362.9" class="st9"/></g><g id="Balloon"><path id="Left_part" d="M256,375.3c-6.1,0-12.1-0.4-17.9-1.2c-13.5-1.8-26.3-5.7-38.2-11.2 c-45.4-21.2-76.8-67.2-76.8-120.6c0-51.9,29.7-96.9,73.1-118.8c12.9-6.5,27-11,41.8-13c5.9-0.8,11.9-1.2,18.1-1.2 c-25.6,0-46.3,59.6-46.3,133S230.4,375.3,256,375.3z" class="st17"/><ellipse id="Middle_part_1_" cx="256" cy="242.3" class="st25" rx="46.3" ry="133"/><path id="Right_part" d="M389,242.3c0,53.4-31.4,99.4-76.8,120.6h0c-11.9,5.6-24.7,9.4-38.2,11.2 c-5.9,0.8-11.9,1.2-17.9,1.2c25.6,0,46.3-59.6,46.3-133s-20.7-133-46.3-133c6.1,0,12.1,0.4,18.1,1.2c14.9,2,29,6.5,41.8,13h0 C359.3,145.5,389,190.4,389,242.3z" class="st16"/><g id="Vertical_line_1_"><path id="Bottom_36_" d="M374,235.9c0.2,2.1,0.3,4.2,0.4,6.3" class="st23"/><path id="Top_38_" d="M365.6,201.4c3.2,7.8,5.7,16.1,7.2,24.6" class="st23"/></g><g id="Lines_24_"><line id="Buttom" x1="153.5" x2="162.5" y1="229.8" y2="236.7" class="st5"/><line id="Middle_34_" x1="153.5" x2="171.4" y1="221.2" y2="235" class="st5"/><line id="Top_37_" x1="166.5" x2="171.4" y1="222.4" y2="226.2" class="st5"/></g></g></g><g id="Sparkles_10_"><line id="Bottom_35_" x1="348.4" x2="340.5" y1="103" y2="106.6" class="st11"/><line id="Middle_33_" x1="337.8" x2="332.2" y1="92.3" y2="100.3" class="st11"/><line id="Top_36_" x1="322.8" x2="323" y1="95.6" y2="86.3" class="st11"/></g><g id="Clouds_2_"><g id="Cloud"><g id="Cloud_1_"><path id="Shape_53_" d="M202.8,318.9c0,13.2-10.7,23.9-23.9,23.9H81.3c-10.4,0-18.9-8.5-18.9-18.9 c0-0.6,0-1.3,0.1-1.9c0-0.4,0.1-0.9,0.2-1.3c1.3-7.6,7.1-13.7,14.6-15.3c1.3-0.3,2.7-0.4,4-0.4c0.1,0,0.1,0,0.2,0 c-0.1-1-0.2-2.1-0.2-3.2c0-1.7,0.2-3.4,0.5-5.1c2.4-12,12.9-21.1,25.6-21.1c1.7,0,3.3,0.2,4.9,0.5c3.6-11.1,12.3-20,23.2-23.9 c3.4-1.2,7.1-2,10.9-2.2c0.6,0,1.2,0,1.9,0c0.1,0,0.2,0,0.3,0c20.8,0.1,37.6,17,37.6,37.8c0,2.8-0.3,5.5-0.9,8.1 C195.4,298.7,202.8,307.9,202.8,318.9z" class="st26"/><path id="Line__x23_2_5_" d="M186,287.3c0,10.8-4.5,20.6-11.8,27.5" class="st26"/><path id="Line__x23_1_5_" d="M106.7,275.5c12,0,22,8.3,24.8,19.4" class="st18"/></g><g id="Lines_23_"><path id="Right_32_" d="M160.8,262.2c4.6,2.2,8.4,5.6,11.1,9.9" class="st23"/><path id="Left_32_" d="M76.2,330.7c-1.1-1.9-1.8-4.1-1.8-6.5c0-0.4,0-0.8,0.1-1.3c0-0.3,0.1-0.6,0.1-0.9 c0.2-1.4,0.7-2.6,1.3-3.8" class="st4"/></g></g><g id="Cloud_3_"><g id="Cloud_2_"><path id="Shape_52_" d="M224.5,175.4c0,13.2-10.7,23.9-23.9,23.9H103c-10.4,0-18.9-8.5-18.9-18.9 c0-0.6,0-1.3,0.1-1.9c0-0.4,0.1-0.9,0.2-1.3c1.3-7.6,7.1-13.7,14.6-15.3c1.3-0.3,2.7-0.4,4-0.4c0.1,0,0.1,0,0.2,0 c-0.1-1-0.2-2.1-0.2-3.2c0-1.7,0.2-3.4,0.5-5.1c2.4-12,12.9-21.1,25.6-21.1c1.7,0,3.3,0.2,4.9,0.5c3.6-11.1,12.3-20,23.2-23.9 c3.4-1.2,7.1-2,10.9-2.2c0.6,0,1.2,0,1.9,0c0.1,0,0.2,0,0.3,0c20.8,0.1,37.6,17,37.6,37.8c0,2.8-0.3,5.5-0.9,8.1 C217.1,155.2,224.5,164.4,224.5,175.4z" class="st26"/><path id="Line__x23_2_4_" d="M207.7,143.8c0,10.8-4.5,20.6-11.8,27.5" class="st26"/><path id="Line__x23_1_4_" d="M128.3,132.1c12,0,22,8.3,24.8,19.4" class="st18"/></g><path id="Line_15_" d="M182.5,118.7c4.6,2.2,8.4,5.6,11.1,9.9" class="st4"/></g><g id="Cloud_5_"><g id="Cloud_4_"><path id="Shape_51_" d="M456.8,302c0,13.2-10.7,23.9-23.9,23.9h-97.6c-10.4,0-18.9-8.5-18.9-18.9 c0-0.6,0-1.3,0.1-1.9c0-0.4,0.1-0.9,0.2-1.3c1.3-7.6,7.1-13.7,14.6-15.3c1.3-0.3,2.7-0.4,4-0.4c0.1,0,0.1,0,0.2,0 c-0.1-1-0.2-2.1-0.2-3.2c0-1.7,0.2-3.4,0.5-5.1c2.4-12,12.9-21.1,25.6-21.1c1.7,0,3.3,0.2,4.9,0.5c3.6-11.1,12.3-20,23.2-23.9 c3.4-1.2,7.1-2,10.9-2.2c0.6,0,1.2,0,1.9,0c0.1,0,0.2,0,0.3,0c20.8,0.1,37.6,17,37.6,37.8c0,2.8-0.3,5.5-0.9,8.1 C449.3,281.8,456.8,291,456.8,302z" class="st26"/><path id="Line__x23_2_3_" d="M440,270.4c0,10.8-4.5,20.6-11.8,27.5" class="st26"/><path id="Line__x23_1_3_" d="M360.6,258.7c12,0,22,8.3,24.8,19.4" class="st18"/></g><path id="Line_14_" d="M414.7,245.3c4.6,2.2,8.4,5.6,11.1,9.9" class="st4"/></g></g></g></g></svg>