<svg xmlns="http://www.w3.org/2000/svg" xmlns:xlink="http://www.w3.org/1999/xlink" id="Layer_1" version="1.1" viewBox="0 0 512 512" xml:space="preserve" style="enable-background:new 0 0 512 512"><style type="text/css">.st0{fill:#eeedf2}.st1{stroke:#1e247e;stroke-width:6;stroke-linecap:round;stroke-miterlimit:10}.st1,.st3{fill:none}.st3,.st5{stroke:#1e247e;stroke-linecap:round;stroke-miterlimit:10}.st3{stroke-width:3}.st5{fill:#fcf5f2;stroke-width:5}.st7{fill:#1e247e}.st9{fill:#eab8b1}.st14{fill:#d3d5e7}.st15{fill:#fff;stroke:#1e247e;stroke-width:5;stroke-linecap:round;stroke-miterlimit:10}.st17{fill:#ececee}.st20{fill:#69aef8;stroke-width:6}.st20,.st23,.st25{stroke:#1e247e;stroke-linecap:round;stroke-miterlimit:10}.st23{fill:#69adf7;stroke-width:2.5}.st25{fill:#fff;stroke-width:6}.st26{fill:#dbe7fe}.st27{fill:#d3d5e7;stroke-width:5}.st27,.st28,.st29,.st30,.st31,.st32{stroke:#1e247e;stroke-linecap:round;stroke-miterlimit:10}.st28{fill:#dd9796;stroke-width:3}.st29,.st30{fill:#eeced1;stroke-width:2.5}.st30{fill:#cb7272}.st31,.st32{fill:#dbe7fe;stroke-width:5}.st32{fill:#69aef8}</style><g><g id="Chat"><circle id="Background_1_" cx="256.4" cy="256" r="215.6" class="st0"/><g id="Bottom_line_3_"><line id="Right_13_" x1="458" x2="473" y1="471.6" y2="471.6" class="st1"/><line id="Middle_4_" x1="70" x2="444.1" y1="471.6" y2="471.6" class="st1"/><line id="Left_12_" x1="41.8" x2="55.4" y1="471.6" y2="471.6" class="st1"/></g><g id="Laptop_1_"><g id="Laptop_top"><path id="Body_5_" d="M399,457.5H121.5V298.3c0-11.6,9.4-21,21-21H378c11.6,0,21,9.4,21,21V457.5z" class="st20"/><path id="Screen" d="M385.6,457.5H135V313.8c0-10.5,8.5-19,19-19h212.5c10.5,0,19,8.5,19,19V457.5z" class="st25"/></g><g id="Laptop_bottom_1_"><g id="Laptop_bottom_2_"><path id="Body_4_" d="M435.7,452.8c0,5.1-2.1,9.7-5.4,13c-3.3,3.3-7.9,5.4-13,5.4h-314 c-10.2,0-18.4-8.2-18.4-18.4c0-1.1,0.9-1.9,1.9-1.9h347C434.8,450.9,435.7,451.7,435.7,452.8z" class="st25"/><path id="Middle_part" d="M285.1,450.9L285.1,450.9c0,5.6-4.5,10.2-10.2,10.2h-29.2c-5.6,0-10.2-4.5-10.2-10.2 l0,0H285.1z" class="st25"/></g></g><g id="Content"><g id="Lines:_left_bottom"><line id="_x34_th_line_2_" x1="161.7" x2="187.2" y1="420.5" y2="420.5" class="st25"/><line id="_x33_rd_line_2_" x1="161.7" x2="212.6" y1="410.8" y2="410.8" class="st25"/><line id="_x32_nd_line_2_" x1="161.7" x2="212.6" y1="401.1" y2="401.1" class="st25"/><line id="_x31_st_line_2_" x1="161.7" x2="212.6" y1="391.5" y2="391.5" class="st25"/></g><g id="Lines:_right_top"><line id="_x34_th_line_1_" x1="358.5" x2="333.1" y1="352.2" y2="352.2" class="st25"/><line id="_x33_rd_line_1_" x1="358.5" x2="307.7" y1="342.5" y2="342.5" class="st25"/><line id="_x32_nd_line_1_" x1="358.5" x2="307.7" y1="332.9" y2="332.9" class="st25"/><line id="_x31_st_line_1_" x1="358.5" x2="307.7" y1="323.2" y2="323.2" class="st25"/></g><path d="M357.8,437h-44.7c-1.5,0-2.8-1.2-2.8-2.8v-44.7c0-1.5,1.2-2.8,2.8-2.8h44.7c1.5,0,2.8,1.2,2.8,2.8v44.7 C360.6,435.8,359.3,437,357.8,437z" class="st26"/><path d="M286.4,437h-25.5c-1.7,0-3.1-1.4-3.1-3.1V324c0-1.7,1.4-3.1,3.1-3.1h25.5c1.7,0,3.1,1.4,3.1,3.1v110 C289.5,435.6,288.1,437,286.4,437z" class="st17"/><g id="Lines:_right_bottom"><line id="Bottom_2_" x1="329.8" x2="335.4" y1="410.8" y2="415.1" class="st23"/><line id="Middle_3_" x1="329.8" x2="341" y1="405.4" y2="414" class="st23"/><line id="Top_2_" x1="337.9" x2="341" y1="406.1" y2="408.5" class="st23"/></g></g></g><g id="Bottom_window_chat"><g id="Window_chat"><path id="Shadow_7_" d="M226.7,222.5v99c0,13.5-10.9,24.4-24.4,24.4H78.2c-13.5,0-24.4-10.9-24.4-24.4v-99 c0-13.5,10.9-24.4,24.4-24.4h124.1C215.8,198.1,226.7,209,226.7,222.5z" class="st14"/><path id="Body_2_" d="M215,212.7v99c0,13.5-10.9,24.4-24.4,24.4H66.5c-13.5,0-24.4-10.9-24.4-24.4v-99 c0-13.5,10.9-24.4,24.4-24.4h124.1C204,188.3,215,199.2,215,212.7z" class="st15"/><path id="Line_6_" d="M53.3,206.2c0.9-2.7,2.8-4.9,5.3-6.3" class="st3"/></g><g id="Male_face"><g id="Hair_3_"><path id="Shape_8_" d="M171.2,272c0,0,0-3.2-0.7-7.1c-1-5.5-3.3-12.3-8.8-13.4c-7-1.4-11.3,18.8-31.2,2.6 c-13.5-10.9-27.2-9.8-34.8-7.9c-3.5,0.9-6.1,3.8-6.5,7.4l-1.9,15.4c0,0,0,0,0,0c-0.5-0.9-18.4-30.4,0-42.3 c0,0,30.9-42.5,67.6-17.4c2,1.4,3.4,3.2,4.7,5.2c1.6,2.5,8.4,2.3,16.5,10.4C196.2,244.7,171.2,272,171.2,272z" class="st27"/><path id="Line_2_" d="M152.4,247.1c-3.9,3.3-9.3,5.8-19.2-2.2" class="st3"/></g><g id="Face_2_"><g id="Ears"><path id="Left_11_" d="M92.9,288.5L92.9,288.5c-2,1.8-5.1,1.6-6.9-0.3l-4.6-5.1c-1.8-2-1.6-5.1,0.3-6.9l0,0 c2-1.8,5.1-1.6,6.9,0.3l4.6,5.1C95,283.6,94.9,286.7,92.9,288.5z" class="st5"/><path id="Right_12_" d="M165,288.5L165,288.5c2,1.8,5.1,1.6,6.9-0.3l4.6-5.1c1.8-2,1.6-5.1-0.3-6.9l0,0 c-2-1.8-5.1-1.6-6.9,0.3l-4.6,5.1C162.9,283.6,163,286.7,165,288.5z" class="st5"/></g><path id="Shape_3_" d="M170.1,264.8v4.7c0,2.1-0.1,4.1-0.3,6.2c-0.5,4.8-1.5,9.4-3.1,13.9 c-1.6,4.6-3.7,8.9-6.5,12.9c-4,5.9-9.3,11.6-16.2,15.2c-4.3,2.3-9.3,3.7-15,3.9l-0.5,0c-6-0.1-11.2-1.6-15.7-4 c-5.6-3-10.1-7.3-13.8-11.9c-3.8-4.9-6.8-10.4-8.8-16.2c-1.6-4.5-2.6-9.1-3.1-13.9c-0.2-2.1-0.3-4.2-0.3-6.3v-0.6c0,0,0,0,0,0 l0-13.7c0.4-3.6,4.9-8.2,8.4-9.1c7.5-1.9,21.3-3,34.8,7.9c20,16.2,24.3-3.9,31.2-2.6C166.9,252.5,169.2,259.3,170.1,264.8z" class="st5"/><g id="Eyes_2_"><g id="Left_10_"><g><path d="M110.8,278.6c4.4,0,4.4-6.9,0-6.9C106.3,271.7,106.3,278.6,110.8,278.6L110.8,278.6z" class="st7"/></g></g><g id="Right_11_"><g><path d="M146.3,278.6c4.4,0,4.4-6.9,0-6.9C141.9,271.7,141.8,278.6,146.3,278.6L146.3,278.6z" class="st7"/></g></g></g><path id="Nose_2_" d="M133.2,283.2c-0.7,1.4-2.6,2.3-4.7,2.3c-2.1,0-3.9-0.9-4.6-2.2" class="st3"/><g id="Eyebrown"><path id="Left_9_" d="M104.7,266.7c0,0,6.2-2.9,12.1,0" class="st3"/><path id="Right_10_" d="M152.3,266.7c0,0-6.2-2.9-12.1,0" class="st3"/></g><g id="Cheeks_2_"><ellipse id="Left_8_" cx="104.1" cy="284.4" class="st9" rx="6.6" ry="4.4"/><ellipse id="Right_9_" cx="153" cy="284.4" class="st9" rx="6.6" ry="4.4"/></g><g id="Mouth_4_"><g id="Mouth_5_"><path id="Shape_1_" d="M137.4,296.1l-1.3,3.4l-0.1,0.4c-0.3,0.7-0.7,1.4-1.3,2.3c-0.2,0.3-0.4,0.5-0.6,0.8 c-0.6,0.6-1.3,1.2-2.1,1.7c-0.1,0-0.2,0.1-0.2,0.1c-0.3,0.2-0.7,0.3-1,0.5c-0.4,0.2-0.7,0.3-1.1,0.4c-0.3,0.1-0.7,0.2-1,0.2 c-0.3,0-0.7-0.1-1-0.2h0c-0.4-0.1-0.8-0.3-1.1-0.4c-0.4-0.2-0.7-0.3-1-0.5c-0.1,0-0.2-0.1-0.2-0.1c-0.8-0.5-1.5-1.1-2.1-1.7 c-0.3-0.3-0.5-0.6-0.7-0.9c-0.6-0.8-0.9-1.5-1.2-2.2l-1.5-3.7c-0.3-0.7,0.2-1.4,1-1.4h15.8 C137.2,294.7,137.7,295.4,137.4,296.1z" class="st28"/></g><g id="Tongue_3_"><path id="Shape_2_" d="M133.9,303c-0.2,0.2-0.5,0.5-0.7,0.7c-0.5,0.4-1.1,0.8-1.8,1.2c-0.1,0-0.2,0.1-0.3,0.1 c-0.3,0.1-0.5,0.2-0.8,0.4c-0.3,0.1-0.6,0.2-1,0.3c-0.3,0.1-0.5,0.1-0.8,0.1c-0.3,0-0.6,0-0.8-0.1h0c-0.3-0.1-0.7-0.2-1-0.3 c-0.3-0.1-0.6-0.2-0.8-0.4c-0.1,0-0.2-0.1-0.3-0.1c-0.7-0.4-1.4-0.8-1.9-1.3c-0.2-0.2-0.4-0.4-0.6-0.6 c0.4-1.4,2-2.6,3.5-2.6c0.9,0,1.7,0.4,2.3,0.9c0,0,0.1,0,0.1,0c0.5-0.3,1-0.5,1.7-0.5C132,300.9,133.5,301.9,133.9,303z" class="st29"/><path id="Line_1_" d="M128.9,301.4c0,0,0.7,0.6,1,1.7" class="st30"/></g></g></g></g></g><g id="Top_window_chat"><g id="Window_chat_1_"><path id="Shadow_5_" d="M473.3,104.1v99c0,13.5-10.9,24.4-24.4,24.4H324.8c-13.5,0-24.4-10.9-24.4-24.4v-99 c0-13.5,10.9-24.4,24.4-24.4h124.1C462.3,79.7,473.3,90.6,473.3,104.1z" class="st14"/><path id="Body_3_" d="M464.4,93.6v99c0,13.5-10.9,24.4-24.4,24.4H315.9c-13.5,0-24.4-10.9-24.4-24.4v-99 c0-13.5,10.9-24.4,24.4-24.4H440C453.5,69.2,464.4,80.1,464.4,93.6z" class="st31"/><path id="Line_3_" d="M300.8,88.7c0.9-2.7,2.8-4.9,5.3-6.3" class="st3"/></g><g id="Female_face"><g id="Hair_2_"><path id="Shape_4_" d="M415.5,194.2h-74.8c-2.4,0-4.7-0.8-6.5-2.3c-19.7-16.7-28.6-45.1-17.2-71.5 c6.4-15,18.3-25.7,39.3-25.2c0,0,44.1-24,73.4,9.2c6,6.8,9.9,15.1,12.3,24c6.7,24.4-2.3,48.6-19.9,63.5 C420.2,193.4,417.9,194.2,415.5,194.2z" class="st32"/><path id="Line_4_" d="M374.2,121.1c3.5,2.7,8.5,5.6,15.2,7.1c3.9,0.9,7.4,1.3,10.6,1.3" class="st3"/></g><g id="Face_1_"><g id="Ears_1_"><path id="Left_3_" d="M341.9,169.5L341.9,169.5c-2,1.8-5.1,1.6-6.9-0.3l-4.6-5.1c-1.8-2-1.6-5.1,0.3-6.9v0 c2-1.8,5.1-1.6,6.9,0.3l4.6,5.1C344.1,164.6,343.9,167.7,341.9,169.5z" class="st5"/><path id="Right_8_" d="M414.1,169.5L414.1,169.5c2,1.8,5.1,1.6,6.9-0.3l4.6-5.1c1.8-2,1.6-5.1-0.3-6.9v0 c-2-1.8-5.1-1.6-6.9,0.3l-4.6,5.1C411.9,164.6,412.1,167.7,414.1,169.5z" class="st5"/></g><path id="Shape_5_" d="M419.6,150.6c0,2.1-0.1,4.1-0.3,6.2c-0.5,4.8-1.5,9.4-3.1,13.9c-1.6,4.6-3.7,8.9-6.5,12.9 c-4,5.9-9.3,11.6-16.2,15.2c-4.3,2.3-9.3,3.7-15,3.9l-0.4,0c-6-0.1-11.2-1.6-15.7-4c-5.6-2.9-10.1-7.3-13.8-11.9 c-3.8-4.9-6.8-10.4-8.8-16.2c-1.6-4.5-2.6-9.1-3.1-13.9c-0.2-2.1-0.3-4.2-0.3-6.3v-10.1c1.2-13,18.8-22.1,18.8-22.1 s7.9,13.4,27.5,17.9c14.1,3.2,24.7,1.2,31.2-1.3c2.4-0.9,5,0.8,5.1,3.3l0,0L419.6,150.6z" class="st5"/><g id="Eyes_1_"><g id="Left_5_"><g><path d="M360.2,159.6c4.4,0,4.4-6.9,0-6.9C355.8,152.7,355.8,159.6,360.2,159.6L360.2,159.6z" class="st7"/></g></g><g id="Right_4_"><g><path d="M395.8,159.6c4.4,0,4.4-6.9,0-6.9C391.3,152.7,391.3,159.6,395.8,159.6L395.8,159.6z" class="st7"/></g></g></g><path id="Nose_1_" d="M382.7,164.2c-0.7,1.4-2.6,2.3-4.7,2.3c-2.1,0-3.9-0.9-4.6-2.2" class="st3"/><g id="Eyebrow_1_"><path id="Left_7_" d="M354.2,147.7c0,0,6.2-2.9,12.1,0" class="st3"/><path id="Right_7_" d="M401.8,147.7c0,0-6.2-2.9-12.1,0" class="st3"/></g><g id="Cheeks_1_"><ellipse id="Left_6_" cx="353.6" cy="165.4" class="st9" rx="6.6" ry="4.4"/><ellipse id="Right_6_" cx="402.4" cy="165.4" class="st9" rx="6.6" ry="4.4"/></g><g id="Mouth_2_"><g id="Mouth_3_"><path id="Shape_6_" d="M386.8,177.1l-1.3,3.4l-0.1,0.4c-0.3,0.7-0.7,1.4-1.3,2.3c-0.2,0.3-0.4,0.5-0.6,0.8 c-0.6,0.6-1.3,1.2-2.1,1.7c-0.1,0-0.2,0.1-0.2,0.1c-0.3,0.2-0.7,0.3-1,0.5c-0.4,0.2-0.7,0.3-1.1,0.4c-0.3,0.1-0.7,0.2-1,0.2 c-0.3,0-0.7-0.1-1-0.2h0c-0.4-0.1-0.8-0.3-1.1-0.4c-0.4-0.2-0.7-0.3-1-0.5c-0.1,0-0.2-0.1-0.2-0.1c-0.8-0.5-1.5-1.1-2.1-1.7 c-0.3-0.3-0.5-0.6-0.7-0.9c-0.6-0.8-0.9-1.5-1.2-2.2l-1.5-3.7c-0.3-0.7,0.2-1.4,1-1.4h15.8 C386.6,175.7,387.1,176.4,386.8,177.1z" class="st28"/></g><g id="Tongue_2_"><path id="Shape_7_" d="M383.4,184c-0.2,0.2-0.5,0.5-0.7,0.7c-0.5,0.4-1.1,0.8-1.8,1.2c-0.1,0-0.2,0.1-0.3,0.1 c-0.3,0.1-0.5,0.2-0.8,0.4c-0.3,0.1-0.6,0.2-1,0.3c-0.3,0.1-0.5,0.1-0.8,0.1c-0.3,0-0.6,0-0.8-0.1h0c-0.3-0.1-0.7-0.2-1-0.3 c-0.3-0.1-0.6-0.2-0.8-0.4c-0.1,0-0.2-0.1-0.3-0.1c-0.7-0.4-1.4-0.8-1.9-1.3c-0.2-0.2-0.4-0.4-0.6-0.6 c0.4-1.4,2-2.6,3.5-2.6c0.9,0,1.7,0.4,2.3,0.9c0,0,0.1,0,0.1,0c0.5-0.3,1-0.5,1.7-0.5C381.5,181.9,383,182.9,383.4,184z" class="st29"/><path id="Line_5_" d="M378.4,182.3c0,0,0.7,0.6,1,1.7" class="st30"/></g></g></g></g></g></g></g></svg>