<svg xmlns="http://www.w3.org/2000/svg" xmlns:xlink="http://www.w3.org/1999/xlink" id="Layer_1" version="1.1" viewBox="0 0 512 512" xml:space="preserve" style="enable-background:new 0 0 512 512"><style type="text/css">.st0{fill:#eeedf2}.st1{stroke:#1e247e;stroke-width:6;stroke-linecap:round;stroke-miterlimit:10}.st1,.st3{fill:none}.st3,.st4{stroke:#1e247e;stroke-linecap:round;stroke-miterlimit:10}.st3,.st4{stroke-width:3}.st4{fill:#fff}.st14{fill:#d3d5e7}.st22{opacity:.7;fill:#fff}.st23{fill:#69adf7;stroke:#1e247e;stroke-width:2.5}.st23,.st24,.st25,.st75{stroke-linecap:round;stroke-miterlimit:10}.st24{fill:none;stroke:#fff;stroke-width:7}.st25,.st75{fill:#fff;stroke:#1e247e;stroke-width:6}.st75{fill:#d3d5e7;stroke-width:3}.st76{fill:#79caa1}.st77{fill:none;stroke:#1e247e;stroke-width:2.7;stroke-linecap:round;stroke-miterlimit:10}.st78{fill:#69aef8}</style><g><g id="Devices"><circle id="Background_9_" cx="256" cy="256.7" r="215.6" class="st0"/><g id="Bottom_line_4_"><line id="Bottom_line_7_" x1="445.6" x2="471.6" y1="472.3" y2="472.3" class="st1"/><line id="Bottom_line_6_" x1="67.2" x2="433.3" y1="472.3" y2="472.3" class="st1"/><line id="Bottom_line_5_" x1="40.4" x2="55.1" y1="472.3" y2="472.3" class="st1"/></g><g id="Sparkles_4_"><line id="Bottom_25_" x1="321.8" x2="313.5" y1="111.3" y2="113.7" class="st24"/><line id="Middle_23_" x1="312.9" x2="306.1" y1="99.2" y2="106.3" class="st24"/><line id="Top_26_" x1="297.5" x2="299" y1="100.3" y2="91.1" class="st24"/></g><g id="Right_device"><path id="Shadow_29_" d="M422.8,462h-76.6c-11.8,0-21.3-9.6-21.3-21.3V263.5c0-11.8,9.6-21.3,21.3-21.3h76.6 c11.8,0,21.3,9.6,21.3,21.3v177.2C444.1,452.5,434.6,462,422.8,462z" class="st14"/><path id="Shape_42_" d="M409.5,472.3h-76.6c-11.8,0-21.3-9.6-21.3-21.3V273.8c0-11.8,9.6-21.3,21.3-21.3h76.6 c11.8,0,21.3,9.6,21.3,21.3V451C430.8,462.8,421.3,472.3,409.5,472.3z" class="st25"/><line id="Speaker_2_" x1="367" x2="374.7" y1="264.1" y2="264.1" class="st4"/><circle id="Button_1_" cx="372.3" cy="457.2" r="5.5" class="st75"/><g id="Screen_2_"><rect id="Shape_41_" width="94.2" height="173.9" x="324.1" y="271.7" class="st76"/><g id="Content_7_"><path id="_x32_nd_8_" d="M379.1,354.6h-38.8c-0.8,0-1.5-0.7-1.5-1.5v-22.5c0-0.8,0.7-1.5,1.5-1.5h38.8 c0.8,0,1.5,0.7,1.5,1.5v22.5C380.5,353.9,379.9,354.6,379.1,354.6z" class="st22"/><path id="_x31_st_8_" d="M379.1,322.7h-38.8c-0.8,0-1.5-0.7-1.5-1.5v-22.5c0-0.8,0.7-1.5,1.5-1.5h38.8 c0.8,0,1.5,0.7,1.5,1.5v22.5C380.5,322,379.9,322.7,379.1,322.7z" class="st22"/></g><g id="Lines_16_"><line id="Bottom_24_" x1="348.3" x2="356.2" y1="404.7" y2="410.8" class="st23"/><line id="Middle_22_" x1="348.3" x2="364.2" y1="397.1" y2="409.3" class="st23"/><line id="Top_25_" x1="359.8" x2="364.2" y1="398.2" y2="401.5" class="st23"/></g></g></g><g id="Left_device"><path id="Shadow_27_" d="M274.2,460.7H115.3c-16.3,0-29.7-13.4-29.7-29.7V144.2c0-16.3,13.4-29.7,29.7-29.7h158.9 c16.3,0,29.7,13.4,29.7,29.7V431C303.9,447.4,290.5,460.7,274.2,460.7z" class="st14"/><path id="Shape_40_" d="M259.2,472.3H100.3c-16.3,0-29.7-13.4-29.7-29.7V155.8c0-16.3,13.4-29.7,29.7-29.7h158.9 c16.3,0,29.7,13.4,29.7,29.7v286.8C288.9,459,275.5,472.3,259.2,472.3z" class="st25"/><line id="Speaker_1_" x1="167" x2="192.5" y1="144.3" y2="144.3" class="st3"/><circle id="Button" cx="179.7" cy="448.7" r="10.2" class="st75"/><path id="Line_11_" d="M267.5,139.8c4.8,1,8.6,5.2,9,10.2" class="st77"/><g id="Screen_1_"><rect id="Shape_39_" width="178.8" height="269" x="90.4" y="157.9" class="st78"/><g id="Content_6_"><path id="_x33_rd_7_" d="M241.1,403.8h-79.3c-2.3,0-4.2-1.9-4.2-4.2V282.1c0-2.3,1.9-4.2,4.2-4.2h79.3 c2.3,0,4.2,1.9,4.2,4.2v117.6C245.3,402,243.4,403.8,241.1,403.8z" class="st22"/><path id="_x32_nd_7_" d="M148.7,403.8h-38.3c-1.6,0-2.9-1.3-2.9-2.9v-120c0-1.6,1.3-2.9,2.9-2.9h38.3 c1.6,0,2.9,1.3,2.9,2.9v120C151.7,402.5,150.4,403.8,148.7,403.8z" class="st22"/><path id="_x31_st_7_" d="M198.6,261.6h-88.2c-1.6,0-2.9-1.3-2.9-2.9v-51.6c0-1.6,1.3-2.9,2.9-2.9h88.2 c1.6,0,2.9,1.3,2.9,2.9v51.6C201.5,260.3,200.2,261.6,198.6,261.6z" class="st22"/></g><g id="Lines_15_"><line id="Bottom_23_" x1="137.1" x2="146" y1="233.8" y2="240.7" class="st23"/><line id="Middle_21_" x1="137.1" x2="155" y1="225.2" y2="238.9" class="st23"/><line id="Top_24_" x1="150" x2="155" y1="226.4" y2="230.2" class="st23"/></g></g></g></g></g></svg>