<svg xmlns="http://www.w3.org/2000/svg" xmlns:xlink="http://www.w3.org/1999/xlink" id="Layer_1" version="1.1" viewBox="0 0 512 512" xml:space="preserve" style="enable-background:new 0 0 512 512"><style type="text/css">.st0{fill:#eeedf2}.st3{fill:none;stroke:#1e247e;stroke-width:3;stroke-linecap:round;stroke-miterlimit:10}.st7{fill:#1e247e}.st14{fill:#d3d5e7}.st24,.st25{fill:none;stroke:#fff;stroke-width:7;stroke-linecap:round;stroke-miterlimit:10}.st25{stroke:#1e247e;stroke-width:2.5}.st28{fill:#fff}.st56,.st58{fill:#69aef8;stroke:#1e247e;stroke-width:6;stroke-miterlimit:10}.st58{fill:#fff}.st64{fill:#79caa1}.st65{fill:#f0c330}.st66{fill:#79caa1;stroke:#1e247e;stroke-width:6;stroke-miterlimit:10}.st67{opacity:.8;fill:#fff}.st68,.st69{fill:#da867d;stroke:#1e247e;stroke-width:6;stroke-miterlimit:10}.st69{fill:#f0c330;stroke-width:5}</style><g><g id="Wallet_1_"><circle id="Background_23_" cx="255.6" cy="257.2" r="215.6" class="st0"/><g id="Wallet_with_cards"><g id="Shadows_3_"><path id="Wallet_shadow" d="M373.3,412.2H166.2c-17.3,0-31.3-14-31.3-31.3V242.2c0-17.3,14-31.3,31.3-31.3h207.1 c17.3,0,31.3,14,31.3,31.3V381C404.6,398.2,390.6,412.2,373.3,412.2z" class="st14"/><path id="Clasp_shadow" d="M403.6,336.9h-56.4c-12.9,0-23.3-10.4-23.3-23.3v-4c0-12.9,10.4-23.3,23.3-23.3h56.4 c7,0,12.7,5.7,12.7,12.7v25.2C416.3,331.2,410.6,336.9,403.6,336.9z" class="st14"/><path id="Right_card_shadow" d="M390.7,233.7l-131.3,75.7c-4,2.3-9.1,0.9-11.3-3l-45.5-79c-2.3-4-0.9-9.1,3-11.3 l131.3-75.7c4-2.3,9.1-0.9,11.3,3l45.5,79C396.1,226.3,394.7,231.4,390.7,233.7z" class="st14"/><path id="Left_card_shadow" d="M326.2,175.3l-91.9,120.4c-2.8,3.6-8,4.3-11.6,1.6L150.1,242 c-3.6-2.8-4.3-8-1.6-11.6l91.9-120.4c2.8-3.6,8-4.3,11.6-1.6l72.5,55.4C328.3,166.5,329,171.7,326.2,175.3z" class="st14"/></g><g id="Cards"><g id="Right_58_"><path id="Shape_95_" d="M375.1,231.5l-131.3,75.7c-4,2.3-9.1,0.9-11.3-3l-45.5-79c-2.3-4-0.9-9.1,3-11.3 l131.3-75.7c4-2.3,9.1-0.9,11.3,3l45.5,79C380.5,224.1,379.1,229.2,375.1,231.5z" class="st58"/><g id="Sign"><ellipse id="Left_61_" cx="318.6" cy="229.3" class="st64" rx="12.3" ry="12.3" transform="matrix(0.8664 -0.4993 0.4993 0.8664 -71.913 189.7093)"/><ellipse id="Right_59_" cx="336.6" cy="219" class="st65" rx="12.3" ry="12.3" transform="matrix(0.8664 -0.4993 0.4993 0.8664 -64.3986 197.3506)"/></g><g id="Magnetic_stripe"><rect id="Stripe_2_" width="168.1" height="29.7" x="191.6" y="195.7" class="st66" transform="matrix(0.8664 -0.4993 0.4993 0.8664 -68.3132 165.7556)"/><polygon id="Right_line_4_" points="300.8 182.7 307.1 179 301.9 195.5 305.6 192.7 298.9 210.5 290.6 215.3" class="st67"/><polygon id="Left_line_4_" points="296.2 185.3 286 218 279.1 221.9 289.2 189.3" class="st67"/></g><g id="Sparkles_27_"><line id="_x33_rd_29_" x1="375.9" x2="367.3" y1="140.8" y2="141.6" class="st24"/><line id="_x32_nd_30_" x1="369.5" x2="361.5" y1="127.2" y2="132.9" class="st24"/><line id="_x31_st_30_" x1="354.2" x2="357.4" y1="125.3" y2="116.6" class="st24"/></g></g><g id="Left_59_"><path id="Shape_94_" d="M310.6,173.1l-91.9,120.4c-2.8,3.6-8,4.3-11.6,1.6l-72.5-55.4c-3.6-2.8-4.3-8-1.6-11.6 l91.9-120.4c2.8-3.6,8-4.3,11.6-1.6l72.5,55.4C312.7,164.3,313.4,169.5,310.6,173.1z" class="st58"/><g id="Sign_1_"><ellipse id="Left_60_" cx="257.6" cy="192.9" class="st64" rx="12.3" ry="12.3" transform="matrix(0.6068 -0.7948 0.7948 0.6068 -52.0243 280.575)"/><ellipse id="Right_57_" cx="270.3" cy="176.5" class="st65" rx="12.3" ry="12.3" transform="matrix(0.6068 -0.7948 0.7948 0.6068 -34.005 284.2261)"/></g><g id="Magnetic_stripe_1_"><rect id="Stripe_1_" width="168.1" height="29.7" x="126.7" y="177.3" class="st56" transform="matrix(0.6068 -0.7948 0.7948 0.6068 -69.9004 243.0613)"/><polygon id="Right_line_3_" points="223.2 156.8 227.6 151 229.2 168.1 231.5 164.2 232.2 183.2 226.4 190.8" class="st67"/><polygon id="Left_line_3_" points="220 161 223.1 195.1 218.3 201.3 215.1 167.3" class="st67"/></g><g id="Line_30_"><g><path d="M201.4,260.9c8.5-11.2,17.1-22.4,25.6-33.6c2.2-2.9-2.7-5.8-4.9-2.9c-8.5,11.2-17.1,22.4-25.6,33.6 C194.3,260.9,199.2,263.8,201.4,260.9L201.4,260.9z" class="st7"/></g></g><g id="Sparkles_26_"><line id="_x33_rd_28_" x1="239.7" x2="243.5" y1="88.2" y2="79.7" class="st24"/><line id="_x32_nd_29_" x1="227.5" x2="229.2" y1="78.9" y2="88.6" class="st24"/><line id="_x31_st_29_" x1="213.4" x2="219.1" y1="84.2" y2="90.8" class="st24"/></g></g></g><g id="Wallet"><g id="Body_14_"><path id="Shape_93_" d="M357.1,410h-206c-17.6,0-31.8-14.3-31.8-31.8V240.6c0-17.6,14.3-31.8,31.8-31.8h206 c17.6,0,31.8,14.3,31.8,31.8v137.6C389,395.8,374.7,410,357.1,410z" class="st68"/><g id="Lines_40_"><line id="Bottom_80_" x1="190.4" x2="199" y1="306.8" y2="313.4" class="st25"/><line id="Middle_64_" x1="190.4" x2="207.6" y1="298.5" y2="311.7" class="st25"/><line id="Top_82_" x1="202.8" x2="207.6" y1="299.7" y2="303.3" class="st25"/></g><g id="Corner_lines_2_"><path id="Bottom_left_3_" d="M148.1,395.2c-8.6,0-15.5-7-15.5-15.5" class="st3"/><path id="Bottom_right_2_" d="M375.8,379.6c0,8.6-7,15.5-15.5,15.5" class="st3"/><path id="Top_right_2_" d="M360.3,221.5c8.6,0,15.5,7,15.5,15.5" class="st3"/><path id="Top_left_3_" d="M132.6,237c0-8.6,7-15.5,15.5-15.5" class="st3"/></g><g id="Side_lines"><line id="Top_left_2_" x1="119.3" x2="130.6" y1="276.2" y2="276.2" class="st25"/><line id="Bottom_left_2_" x1="119.3" x2="130.6" y1="334.7" y2="334.7" class="st25"/><line id="Right_56_" x1="378.9" x2="390.2" y1="259.4" y2="259.4" class="st25"/></g></g><g id="Clasp"><path id="Shape_92_" d="M387.7,334.7h-56c-12.9,0-23.3-10.4-23.3-23.3v-4c0-12.9,10.4-23.3,23.3-23.3h56 c7.2,0,13,5.8,13,13v24.5C400.7,328.8,394.9,334.7,387.7,334.7z" class="st58"/><circle id="Button_2_" cx="334.9" cy="310.1" r="8.7" class="st69"/><line id="Line_29_" x1="389" x2="400.3" y1="310.1" y2="310.1" class="st25"/></g></g></g><g id="Sparkles_25_"><path id="_x33_rd_27_" d="M135.7,184c-8.4-0.4-8.2-9.8-8.2-9.8c-0.2,10.3-8.6,9.8-8.6,9.8s8.6,0.8,8.6,9.5 C127.5,193.5,128.5,184.8,135.7,184" class="st28"/><path id="_x32_nd_28_" d="M118.7,168.2c-5.3-0.3-5.2-6.2-5.2-6.2c-0.1,6.5-5.5,6.2-5.5,6.2s5.5,0.5,5.5,6 C113.5,174.2,114.2,168.7,118.7,168.2" class="st28"/><path id="_x31_st_28_" d="M115.3,187.3c-18.8-1-18.3-21.9-18.3-21.9c-0.5,22.9-19.3,21.9-19.3,21.9 S97,189.2,97,208.6C97,208.6,99.5,189.1,115.3,187.3" class="st28"/></g></g></g></svg>