<svg xmlns="http://www.w3.org/2000/svg" xmlns:xlink="http://www.w3.org/1999/xlink" id="Layer_1" version="1.1" viewBox="0 0 512 512" xml:space="preserve" style="enable-background:new 0 0 512 512"><style type="text/css">.st0{fill:#eeedf2}.st1{fill:#d3d5e7}.st11,.st19{stroke-linecap:round;stroke-miterlimit:10}.st2{fill:#fff;stroke-width:6}.st2,.st5,.st9{stroke:#1e247e;stroke-linecap:round;stroke-miterlimit:10}.st11,.st19{fill:none}.st5,.st9{fill:none;stroke-width:2.5}.st9{stroke-width:6}.st11{stroke:#fff;stroke-width:7}.st19{stroke:#d3d5e7;stroke-width:6}.st27{fill:#1e247e}.st28{fill:#f0c330}.st29,.st30{fill:#da867d;stroke:#1e247e;stroke-width:5.5;stroke-linecap:round;stroke-miterlimit:10}.st30{fill:#d3d5e7}.st31{fill:#69aef8}</style><g><g id="Online_shopping"><circle id="Background_15_" cx="256.2" cy="255.8" r="215.6" class="st0"/><g id="Cart"><g id="Shadow_39_"><path id="Basket_shadow_1_" d="M151.3,272.5h228.3L357.8,383l-180.8-19.4c-4.5-0.5-8.2-3.7-9.3-8.1L148.6,276 C148.2,274.2,149.5,272.5,151.3,272.5z" class="st1"/><path id="Frame_shadow" d="M438.7,207.2l-38.5,7.5c-5.8,1.1-10.3,5.6-11.5,11.4l-39.5,202c-0.7,3.8-3,7-6.3,9l0,0 c-2.1,1.3-4.5,1.9-7,1.9H168" class="st19"/><circle id="Left_wheel" cx="203.8" cy="457" r="14.4" class="st1"/><circle id="Right_wheel" cx="309.6" cy="457" r="14.4" class="st1"/></g><path id="Frame" d="M421.5,206.2l-38.5,7.5c-5.8,1.1-10.3,5.6-11.5,11.4l-39.5,202c-0.7,3.8-3,7-6.3,9l0,0 c-2.1,1.3-4.5,1.9-7,1.9H150.8" class="st9"/><g id="Wheels"><g id="Right_36_"><circle cx="292.3" cy="456" r="14.4" class="st2"/><g id="Inner_part_1_"><g><path d="M292.3,459c3.9,0,3.9-6,0-6C288.5,453,288.5,459,292.3,459L292.3,459z" class="st27"/></g></g></g><g id="Left_37_"><circle id="Outer_part" cx="186.5" cy="456" r="14.4" class="st2"/><g id="Inner_part"><g><path d="M186.5,459c3.9,0,3.9-6,0-6C182.7,453,182.7,459,186.5,459L186.5,459z" class="st27"/></g></g></g></g><g id="Basket_1_"><path d="M134,271.6h228.3l-21.8,110.5l-180.8-19.4c-4.5-0.5-8.2-3.7-9.3-8.1L131.4,275 C130.9,273.3,132.3,271.6,134,271.6z" class="st2"/><line x1="202.4" x2="210.6" y1="271.6" y2="367.1" class="st9"/><line x1="292.3" x2="279.3" y1="274.6" y2="375.5" class="st9"/><g><line x1="163.5" x2="180.8" y1="311.9" y2="325.1" class="st5"/><line x1="163.5" x2="172.2" y1="320.2" y2="326.8" class="st5"/><line x1="176" x2="180.8" y1="313" y2="316.7" class="st5"/></g><g><line x1="334.6" x2="332.8" y1="343" y2="351.9" class="st5"/><line x1="342" x2="336.4" y1="305.5" y2="333.8" class="st5"/></g></g></g><g id="Arrows_3_"><path id="Left_36_" d="M171.8,152.8h-10.9c-0.9,0-1.7-0.7-1.7-1.7v-18c0-0.9-0.7-1.7-1.7-1.7h-18 c-0.9,0-1.7,0.7-1.7,1.7v18c0,0.9-0.7,1.7-1.7,1.7h-10.9c-1.3,0-2.1,1.5-1.4,2.6l16.6,25.7c3.8,5.9,12.5,5.9,16.3,0l16.5-25.7 C173.9,154.3,173.1,152.8,171.8,152.8z" class="st28"/><path id="Bottom_38_" d="M273.6,215.1h-11.9c-1,0-1.8-0.8-1.8-1.8v-19.7c0-1-0.8-1.8-1.8-1.8h-19.7 c-1,0-1.8,0.8-1.8,1.8v19.7c0,1-0.8,1.8-1.8,1.8h-11.9c-1.4,0-2.3,1.6-1.5,2.8l18.1,28.1c4.2,6.5,13.6,6.5,17.8,0l18.1-28.1 C276,216.7,275.1,215.1,273.6,215.1z" class="st29"/><path id="Top_40_" d="M267.7,84.4h-11.9c-1,0-1.8-0.8-1.8-1.8V62.8c0-1-0.8-1.8-1.8-1.8h-19.7 c-1,0-1.8,0.8-1.8,1.8v19.7c0,1-0.8,1.8-1.8,1.8h-11.9c-1.4,0-2.3,1.6-1.5,2.8l18.1,28.1c4.2,6.5,13.6,6.5,17.8,0l18.1-28.1 C270.1,86,269.2,84.4,267.7,84.4z" class="st30"/><path id="Right_35_" d="M373.3,158.2h-10.9c-0.9,0-1.7-0.7-1.7-1.7v-18c0-0.9-0.7-1.7-1.7-1.7h-18 c-0.9,0-1.7,0.7-1.7,1.7v18c0,0.9-0.7,1.7-1.7,1.7h-10.9c-1.3,0-2.1,1.5-1.4,2.6l16.6,25.7c3.8,5.9,12.5,5.9,16.3,0l16.5-25.7 C375.4,159.6,374.6,158.2,373.3,158.2z" class="st31"/></g><g id="Bottom_line_11_"><line id="Right_34_" x1="407.7" x2="471.4" y1="472" y2="472" class="st2"/><line id="Middle_38_" x1="74.4" x2="392.2" y1="472" y2="472" class="st2"/><line id="Left_35_" x1="40.1" x2="60.4" y1="472" y2="472" class="st2"/></g><g id="Sparkles_11_"><line id="Bottom_37_" x1="291.4" x2="283.1" y1="176.9" y2="179.3" class="st11"/><line id="Middle_37_" x1="282.5" x2="275.7" y1="164.8" y2="171.9" class="st11"/><line id="Top_39_" x1="267.1" x2="268.6" y1="165.9" y2="156.7" class="st11"/></g></g></g></svg>