<svg xmlns="http://www.w3.org/2000/svg" xmlns:xlink="http://www.w3.org/1999/xlink" width="703" height="443" version="1.1" viewBox="0 0 703 443"><title>Artboard</title><defs><linearGradient id="linearGradient-1" x1="100%" x2="0%" y1="0%" y2="100%"><stop offset="0%" stop-color="#32C5FF"/><stop offset="51.258%" stop-color="#B620E0"/><stop offset="100%" stop-color="#F7B500"/></linearGradient><circle id="path-2" cx="226" cy="226" r="226"/><mask id="mask-3" width="452" height="452" x="0" y="0" fill="#fff" maskContentUnits="userSpaceOnUse" maskUnits="objectBoundingBox"><use xlink:href="#path-2"/></mask><linearGradient id="linearGradient-4" x1=".001%" x2="99.996%" y1="49.998%" y2="49.998%"><stop offset="0%" stop-color="#CD94EF"/><stop offset="100%" stop-color="#7A5BF5"/></linearGradient><linearGradient id="linearGradient-5" x1="0%" x2="100%" y1="50%" y2="50%"><stop offset="0%" stop-color="#4F68CA"/><stop offset="100%" stop-color="#5ACEED"/></linearGradient><linearGradient id="linearGradient-6" x1="0%" x2="100%" y1="50%" y2="50%"><stop offset="0%" stop-color="#F87B58"/><stop offset="50%" stop-color="#F8C548"/><stop offset="100%" stop-color="#F89C51"/></linearGradient><linearGradient id="linearGradient-7" x1="0%" x2="100%" y1="50%" y2="50%"><stop offset="0%" stop-color="#E1A1ED"/><stop offset="100%" stop-color="#7658F4"/></linearGradient><linearGradient id="linearGradient-8" x1="0%" x2="100%" y1="50%" y2="50%"><stop offset="0%" stop-color="#4B44BE"/><stop offset="100%" stop-color="#5BD3EF"/></linearGradient><linearGradient id="linearGradient-9" x1="50%" x2="50%" y1="-.083%" y2="100%"><stop offset="0%" stop-color="#CD94EF"/><stop offset="100%" stop-color="#7A5BF5"/></linearGradient><linearGradient id="linearGradient-10" x1="21.516%" x2="97.84%" y1="42.438%" y2="65.049%"><stop offset="0%" stop-color="#CD94EF"/><stop offset="100%" stop-color="#7A5BF5"/></linearGradient><linearGradient id="linearGradient-11" x1="0%" x2="100%" y1="50%" y2="50%"><stop offset="0%" stop-color="#CD94EF"/><stop offset="100%" stop-color="#7A5BF5"/></linearGradient><linearGradient id="linearGradient-12" x1="-.007%" x2="100%" y1="50%" y2="50%"><stop offset="0%" stop-color="#CD94EF"/><stop offset="100%" stop-color="#7A5BF5"/></linearGradient><linearGradient id="linearGradient-13" x1="0%" x2="100%" y1="49.985%" y2="49.985%"><stop offset="0%" stop-color="#CD94EF"/><stop offset="100%" stop-color="#7A5BF5"/></linearGradient><linearGradient id="linearGradient-14" x1="0%" x2="100.001%" y1="49.999%" y2="49.999%"><stop offset="0%" stop-color="#FFF"/><stop offset="100%" stop-color="#FFF" stop-opacity="0"/></linearGradient><linearGradient id="linearGradient-15" x1="-.001%" x2="100%" y1="49.996%" y2="49.996%"><stop offset="0%" stop-color="#FFF"/><stop offset="100%" stop-color="#FFF" stop-opacity="0"/></linearGradient><linearGradient id="linearGradient-16" x1="148.401%" x2="-19.339%" y1="57.017%" y2="50.792%"><stop offset="0%" stop-color="#FFF" stop-opacity="0"/><stop offset="100%" stop-color="#FFF"/></linearGradient><linearGradient id="linearGradient-17" x1="112.069%" x2="6.927%" y1="26.466%" y2="66.04%"><stop offset="0%" stop-color="#FFF" stop-opacity="0"/><stop offset="100%" stop-color="#FFF"/></linearGradient><linearGradient id="linearGradient-18" x1="-.015%" x2="99.931%" y1="50.049%" y2="50.049%"><stop offset="0%" stop-color="#4F68CA"/><stop offset="100%" stop-color="#5ACEED"/></linearGradient><linearGradient id="linearGradient-19" x1=".022%" x2="99.997%" y1="50.014%" y2="50.014%"><stop offset="0%" stop-color="#F87B58"/><stop offset="0%" stop-color="#F87B58"/><stop offset="41%" stop-color="#F89453"/><stop offset="71%" stop-color="#F8C548"/><stop offset="100%" stop-color="#F89C51"/></linearGradient><linearGradient id="linearGradient-20" x1="-.011%" x2="99.994%" y1="50.053%" y2="50.053%"><stop offset="0%" stop-color="#E1A1ED"/><stop offset="100%" stop-color="#7658F4"/></linearGradient><linearGradient id="linearGradient-21" x1="-.094%" x2="99.889%" y1="50.026%" y2="50.026%"><stop offset="0%" stop-color="#5ACEED"/><stop offset="55%" stop-color="#4F68CA"/><stop offset="100%" stop-color="#5282D3"/></linearGradient></defs><g id="Artboard" fill="none" fill-rule="evenodd" stroke="none" stroke-width="1"><g id="bg7" fill-rule="nonzero" transform="translate(31.000000, 0.000000)"><g id="bg"><path id="Path" fill="#F5F5FC" d="M38.8951972,351.314364 C38.8951972,351.314364 -4.91550296,418.942283 99.378925,427.149306 C203.673353,435.356329 231.649477,425.09435 249.455375,423.045795 C267.261272,420.99724 319.066065,383.034957 406.821874,430.22854 C466.249536,462.192399 529.26142,425.107153 558.511223,402.521835 C587.761026,379.936517 605.566923,355.32185 591.575661,351.218338 C577.584398,347.114827 38.8951972,351.314364 38.8951972,351.314364 Z"/><path id="Path" fill="#F8F8FF" fill-opacity=".3" d="M37.090286,353.33091 C37.090286,353.33091 -25.1279487,261.536445 11.616716,225.936402 C48.7966075,189.913844 -0.166410256,144.826431 16.2634024,92.3002023 C30.1650592,47.8465607 115.021489,-25.0691908 192.863087,8.62953757 C300.344911,55.1637428 299.83928,65.4001156 365.974556,53.9474133 C432.109832,42.494711 508.805759,-19.8453757 546.056055,58.5950723 C568.131016,105.078064 628.819556,115.276026 643.64927,158.532543 C658.478984,201.789061 636.141607,255.928526 623.891252,267.765332 C580.458176,309.76711 595.28789,355.116994 595.28789,355.116994 L37.090286,353.33091 Z"/><ellipse id="Oval" cx="333.64" cy="123.931" fill="#FFF" rx="18.523" ry="18.527"/><ellipse id="Oval" cx="353.782" cy="126.185" fill="#FFF" rx="13.684" ry="13.687"/><ellipse id="Oval" cx="486.456" cy="116.953" fill="#FFF" rx="16.955" ry="16.958"/><ellipse id="Oval" cx="467.504" cy="118.733" fill="#FFF" rx="12.526" ry="12.528"/><ellipse id="Oval" cx="508.729" cy="120.333" fill="#FFF" rx="12.526" ry="12.528"/><ellipse id="Oval" cx="75.915" cy="126.684" fill="#FFF" rx="16.955" ry="16.958"/><ellipse id="Oval" cx="57.476" cy="124.623" fill="#FFF" rx="12.526" ry="12.528"/></g><g id="build_1" transform="translate(71.684418, 70.419075)"><g id="Layer_2"><polygon id="Path" fill="#E9EDFA" points="9.453 23.91 10.093 281.145 214.266 281.145 213.626 24.551"/><polygon id="Path" fill="#BAC6F2" points=".493 .224 220.026 .864 220.666 24.551 .493 24.551"/><rect id="Rectangle" width="219.534" height="7.042" x=".493" y="71.923" fill="#BAC6F2"/><rect id="Rectangle" width="202.893" height="7.042" x="10.093" y="78.325" fill="#BAC6F2"/><rect id="Rectangle" width="202.893" height="7.042" x="9.453" y="22.63" fill="#BAC6F2"/><rect id="Rectangle" width="219.534" height="7.042" x="1.773" y="280.62" fill="#BAC6F2"/><polygon id="Path" fill="#BAC6F2" points="29.935 37.994 22.894 45.676 22.894 56.559 29.295 62.961 193.785 63.601 200.185 57.84 200.185 45.676 192.505 37.994"/></g><g id="details" fill="#B1C1F2" transform="translate(8.960552, 87.063584)"><polygon id="Path" points=".493 14.308 13.294 14.308 13.294 22.63 1.133 22.63"/><polygon id="Path" points=".493 97.53 8.173 97.53 8.173 105.853 1.133 105.853"/><rect id="Rectangle" width="20.481" height="7.682" x="69.617" y="85.367"/><rect id="Rectangle" width="20.481" height="7.682" x="57.456" y="98.171"/><rect id="Rectangle" width="20.481" height="7.682" x="47.568" y="51.003"/><rect id="Rectangle" width="20.481" height="7.682" x="94.579" y="98.811"/><rect id="Rectangle" width="20.481" height="7.682" x="58.308" y="6.767"/><rect id="Rectangle" width="20.481" height="7.682" x="173.303" y="94.33"/><rect id="Rectangle" width="20.481" height="7.682" x="176.504" y=".224"/></g><g id="door" transform="translate(160.649901, 206.776012)"><rect id="Rectangle" width="41.558" height="75.643" x=".557" y=".218" fill="#BAC6F2" rx="3.43"/><rect id="Rectangle" width="33.679" height="12.125" x="4.538" y="8.738" fill="#FFF" rx="3.43"/></g><g id="window" transform="translate(21.121302, 97.306358)"><path id="Path" fill="#BAC6F2" d="M0.204812623,29.7168497 L4.38427022,29.7168497 L51.0559467,29.6720376 C51.0559467,29.6720376 53.6161045,15.5882225 43.3754734,7.26596821 C33.1348422,-1.05628613 22.5293886,-1.05628613 14.8489152,2.78475434 C7.16844181,6.6257948 -0.0832051282,12.3873555 0.204812623,29.7168497 Z"/><polyline id="Path" fill="#BAC6F2" points="4.378 29.717 4.026 63.844 47.459 63.844 47.459 28.853 3.68 28.148 4.378 29.717"/><polygon id="Path" fill="#BAC6F2" points="4.026 63.844 1.171 63.64 1.171 69.414 50.269 69.414 50.025 63.64"/><rect id="Rectangle" width="15.163" height="13.962" x="9.434" y="31.625" fill="#FFF"/><rect id="Rectangle" width="14.49" height="13.962" x="27.682" y="31.465" fill="#FFF"/><rect id="Rectangle" width="14.772" height="13.962" x="27.605" y="49.037" fill="#FFF"/><rect id="Rectangle" width="15.163" height="13.962" x="9.575" y="49.031" fill="#FFF"/><polyline id="Path" fill="#B1C1F2" points="6.33 8.918 4.551 29.813 13.23 29.531 14.996 2.753 9.505 5.973 6.996 8.213"/><polyline id="Path" fill="#B1C1F2" points="45.667 9.353 47.299 29.819 39.35 29.544 37.794 3.54 42.697 6.735 45.059 8.668"/><polyline id="Path" fill="#B1C1F2" points="17.774 8.508 16.59 29.614 24.161 29.742 25.858 .346 22.581 .435 18.625 1.178"/><polyline id="Path" fill="#B1C1F2" points="35.567 8.425 36.636 29.531 29.826 29.659 28.386 .461 31.957 1.21 34.94 2.164"/></g><g id="window_copy" transform="translate(85.765286, 97.946532)"><path id="Path" fill="#BAC6F2" d="M0.403224852,29.5247977 L4.58268245,29.5247977 L51.254359,29.4799855 C51.254359,29.4799855 53.8145168,15.3961705 43.5738856,7.07391618 C33.3332544,-1.24833815 22.7278008,-1.24833815 15.0473274,2.59270231 C7.36685404,6.43374277 0.121607495,12.2145087 0.403224852,29.5247977 Z"/><polyline id="Path" fill="#BAC6F2" points="4.583 29.518 4.231 63.652 47.657 63.652 47.657 28.654 3.879 27.95 4.583 29.518"/><polygon id="Path" fill="#BAC6F2" points="4.231 63.652 1.376 63.441 1.376 69.222 50.467 69.222 50.23 63.441"/><rect id="Rectangle" width="15.163" height="13.962" x="9.639" y="31.426" fill="#FFF"/><rect id="Rectangle" width="14.49" height="13.962" x="27.88" y="31.266" fill="#FFF"/><rect id="Rectangle" width="14.772" height="13.962" x="27.803" y="48.839" fill="#FFF"/><rect id="Rectangle" width="15.163" height="13.962" x="9.78" y="48.832" fill="#FFF"/><polyline id="Path" fill="#B1C1F2" points="6.528 8.719 4.749 29.614 13.428 29.339 15.195 2.561 9.709 5.781 7.194 8.021"/><polyline id="Path" fill="#B1C1F2" points="45.865 9.154 47.497 29.627 39.548 29.352 37.993 3.342 42.895 6.536 45.257 8.469"/><polyline id="Path" fill="#B1C1F2" points="17.972 8.309 16.788 29.416 24.36 29.544 26.056 .147 22.779 .237 18.824 .986"/><polyline id="Path" fill="#B1C1F2" points="35.772 8.233 36.834 29.333 30.031 29.461 28.584 .269 32.162 1.011 35.138 1.965"/></g><g id="window_copy_2" transform="translate(149.769231, 97.946532)"><path id="Path" fill="#BAC6F2" d="M0.358422091,29.5247977 L4.53787968,29.5247977 L51.2095562,29.4799855 C51.2095562,29.4799855 53.769714,15.3961705 43.5290828,7.07391618 C33.2884517,-1.24833815 22.682998,-1.24833815 15.0025247,2.59270231 C7.32205128,6.43374277 0.0704043393,12.2145087 0.358422091,29.5247977 Z"/><polyline id="Path" fill="#BAC6F2" points="4.531 29.518 4.179 63.652 47.613 63.652 47.613 28.654 3.827 27.95 4.531 29.518"/><polygon id="Path" fill="#BAC6F2" points="4.179 63.652 1.325 63.441 1.325 69.222 50.422 69.222 50.179 63.441"/><rect id="Rectangle" width="15.163" height="13.962" x="9.588" y="31.426" fill="#FFF"/><rect id="Rectangle" width="14.49" height="13.962" x="27.829" y="31.266" fill="#FFF"/><rect id="Rectangle" width="14.772" height="13.962" x="27.759" y="48.839" fill="#FFF"/><rect id="Rectangle" width="15.163" height="13.962" x="9.729" y="48.832" fill="#FFF"/><polyline id="Path" fill="#B1C1F2" points="6.484 8.719 4.704 29.614 13.383 29.339 15.143 2.561 9.658 5.781 7.143 8.021"/><polyline id="Path" fill="#B1C1F2" points="45.82 9.154 47.453 29.627 39.497 29.352 37.948 3.342 42.851 6.536 45.212 8.469"/><polyline id="Path" fill="#B1C1F2" points="17.928 8.309 16.743 29.416 24.315 29.544 26.005 .147 22.734 .237 18.779 .986"/><polyline id="Path" fill="#B1C1F2" points="35.721 8.233 36.789 29.333 29.979 29.461 28.539 .269 32.111 1.011 35.087 1.965"/></g><g id="window_copy_3" transform="translate(20.481262, 194.612717)"><path id="Path" fill="#BAC6F2" d="M0.992061144,30.0305347 L12.0583432,30.0305347 L135.585957,29.9857225 C135.585957,29.9857225 145.615375,14.4167052 118.509704,5.91520231 C91.4040335,-2.58630058 46.825286,-0.166445087 26.5168343,3.75781792 C6.20838264,7.68208092 0.236814596,12.3553468 0.992061144,30.0305347 Z"/><polyline id="Path" fill="#BAC6F2" points="2.611 30.344 1.53 86.123 135.228 86.123 135.228 28.936 .448 27.784 2.611 30.344"/><rect id="Rectangle" width="117.799" height="28.404" x="9.095" y="31.1" fill="#FFF"/><rect id="Rectangle" width="33.928" height="13.962" x="50.634" y="64.081" fill="#FFF"/><rect id="Rectangle" width="33.928" height="13.962" x="9.901" y="64.325" fill="#FFF"/><rect id="Rectangle" width="33.928" height="13.962" x="91.852" y="64.325" fill="#FFF"/><polyline id="Path" fill="#B1C1F2" points="13.498 8.169 11.079 28.34 22.606 28.078 24.654 3.636 17.896 5.256 14.158 6.792"/><polyline id="Path" fill="#B1C1F2" points="32.52 8.373 30.581 28.148 42.147 28.001 44.252 1.21 38.607 1.876 33.506 2.349"/><polyline id="Path" fill="#B1C1F2" points="118.638 8.021 120.539 28.193 111.476 27.931 109.869 3.489 115.181 5.109 118.119 6.645"/><polyline id="Path" fill="#B1C1F2" points="103.597 8.226 105.21 28.001 95.577 27.854 93.83 1.063 98.528 1.728 102.771 2.202"/><polyline id="Path" fill="#B1C1F2" points="85.912 8.073 87.525 27.848 77.893 27.707 76.101 .282 80.664 .506 85.01 .73"/><polyline id="Path" fill="#B1C1F2" points="64.97 8.809 66.583 28.584 56.951 28.443 55.159 1.024 59.959 .858 64.471 .762"/></g></g><g id="build_2" transform="translate(289.297830, 190.131503)"><polygon id="Path" fill="#E9EDFA" points="12.506 38.116 11.898 166.266 228.404 166.848 228.404 36.925"/><rect id="Rectangle" width="219.534" height="7.042" x="10.701" y="160.299" fill="#BAC6F2"/><rect id="Rectangle" width="240.104" height="8.489" x=".538" y="37.994" fill="#BAC6F2"/><path id="Path" fill="#BAC6F2" d="M4.33306706,39.3770665 C4.33306706,39.3770665 6.89322485,1.22273121 31.8547633,0.492933526 C52.4128304,-0.10882948 157.782525,0.409710983 194.079162,0.742601156 C215.456479,0.941054913 233.761607,16.7469364 236.366568,37.968685 C236.422038,38.4338776 236.473241,38.9033382 236.520178,39.3770665 L4.33306706,39.3770665 Z"/><g id="details_copy" fill="#B1C1F2" transform="translate(14.080868, 48.653179)"><polygon id="Path" points="201.12 47.117 213.92 47.117 213.92 55.439 201.76 55.439"/><polygon id="Path" points="206.4 12.355 214.08 12.355 214.08 20.678 207.04 20.678"/><rect id="Rectangle" width="20.481" height="7.682" x="7.789" y="74.484"/><rect id="Rectangle" width="20.481" height="7.682" x=".544" y="40.741"/><rect id="Rectangle" width="20.481" height="7.682" x="13.268" y="13.412"/><rect id="Rectangle" width="20.481" height="7.682" x="86.098" y="6.677"/><rect id="Rectangle" width="20.481" height="7.682" x="189.439" y="32.226"/><rect id="Rectangle" width="20.481" height="7.682" x="178.36" y="91.551"/><rect id="Rectangle" width="20.481" height="7.682" x="129.736" y=".538"/></g><g id="window_copy_4" transform="translate(51.203156, 74.260116)"><path id="Path" fill="#BAC6F2" d="M0.608037475,29.8512861 L11.6743195,29.8512861 L135.201933,29.806474 C135.201933,29.806474 145.231351,14.2374566 118.12568,5.73595376 C91.0200099,-2.76554913 46.4412623,-0.345693642 26.1328107,3.57856936 C5.82435897,7.50283237 -0.147209073,12.1760983 0.608037475,29.8512861 Z"/><polyline id="Path" fill="#BAC6F2" points="2.227 30.165 1.146 85.943 134.844 85.943 134.844 28.757 .064 27.604 2.227 30.165"/><rect id="Rectangle" width="76.261" height="28.404" x="50.249" y="30.92" fill="#FFF"/><rect id="Rectangle" width="33.928" height="13.962" x="50.249" y="63.902" fill="#FFF"/><rect id="Rectangle" width="33.928" height="46.656" x="9.517" y="31.452" fill="#FFF"/><rect id="Rectangle" width="33.928" height="13.962" x="91.474" y="64.145" fill="#FFF"/><polyline id="Path" fill="#B1C1F2" points="13.114 7.989 10.701 28.161 22.229 27.899 24.27 3.457 17.518 5.077 13.78 6.613"/><polyline id="Path" fill="#B1C1F2" points="32.136 8.194 30.203 27.969 41.769 27.822 43.868 1.031 38.23 1.696 33.128 2.17"/><polyline id="Path" fill="#B1C1F2" points="118.26 7.842 120.155 28.014 111.098 27.752 109.492 3.31 114.797 4.929 117.735 6.466"/><polyline id="Path" fill="#B1C1F2" points="103.219 8.047 104.826 27.822 95.193 27.675 93.446 .883 98.144 1.549 102.394 2.023"/><polyline id="Path" fill="#B1C1F2" points="85.528 7.893 87.141 27.668 77.509 27.527 75.717 .109 80.28 .326 84.626 .551"/><polyline id="Path" fill="#B1C1F2" points="64.593 8.636 66.199 28.404 56.567 28.264 54.775 .845 59.575 .679 64.087 .589"/></g></g><g id="Layer_13" transform="translate(529.952663, 304.082370)"><rect id="Rectangle" width="5.972" height="12.202" x="6.202" y="45.055" fill="#FFF" rx="2.986"/><rect id="Rectangle" width="5.972" height="12.202" x="25.403" y="45.055" fill="#FFF" rx="2.986"/><path id="Path" fill="#BAC6F2" d="M3.87223866,0.697789017 C3.87223866,0.697789017 -0.761646943,48.8068208 0.121607495,49.4661994 C1.00486193,50.125578 36.3030375,50.5672977 37.1862919,49.9079191 C38.0695464,49.2485405 34.5365286,1.13950867 33.877288,0.915447977 C33.2180473,0.691387283 4.97310651,0.0384104046 3.87223866,0.697789017 Z"/><rect id="Rectangle" width="21.845" height="2.426" x="8.5" y="12.835" fill="#FFF" rx="1.213"/><rect id="Rectangle" width="26.696" height="2.426" x="5.856" y="20.556" fill="#FFF" rx="1.213"/></g></g><g id="Connect" transform="translate(95.000000, 89.000000)"><use id="Oval" stroke="url(#linearGradient-1)" stroke-dasharray="14 14" stroke-width="10" mask="url(#mask-3)" xlink:href="#path-2"/><rect id="Rectangle" width="27" height="66" x="0" y="265" fill="#F5F5FC"/><rect id="Rectangle" width="27" height="45" x="402.68" y="302.561" fill="#F5F5FC" transform="translate(416.180110, 325.061429) rotate(33.000000) translate(-416.180110, -325.061429)"/></g><g id="pin" fill-rule="nonzero" transform="translate(447.000000, 205.000000)"><path id="Path" fill="url(#linearGradient-4)" d="M90.5979952,223.085398 L47.9520836,122.951382 C30.8179108,82.7100285 60.2515575,38 103.87988,38 L103.87988,38 C146.247313,38 174.830053,81.4454554 158.190953,120.492058 L114.500746,223.085398 C112.456606,227.885764 107.753981,231 102.549371,231 C97.3447606,231 92.6421354,227.885764 90.5979952,223.085398 Z"/><circle id="Oval" cx="103" cy="99" r="33" fill="#FFF"/><rect id="Rectangle" width="25" height="8" x="0" y="124" fill="#EFEFEF"/><rect id="Rectangle" width="25" height="8" x="185" y="124" fill="#EFEFEF"/><polygon id="Rectangle" fill="#EFEFEF" points="156.848 186.859 181.428 186.852 181.426 194.637 156.846 194.645" transform="translate(169.137056, 190.748219) rotate(45.000000) translate(-169.137056, -190.748219)"/><polygon id="Rectangle" fill="#EFEFEF" points="27.299 189.381 51.879 189.389 51.882 197.174 27.302 197.166" transform="translate(39.590678, 193.277682) rotate(-45.000000) translate(-39.590678, -193.277682)"/><polygon id="Rectangle" fill="#EFEFEF" points="13.017 51.806 37.651 51.799 37.649 59.6 13.015 59.607" transform="translate(25.332974, 55.702906) rotate(36.069410) translate(-25.332974, -55.702906)"/><polygon id="Rectangle" fill="#EFEFEF" points="92 9 117 9 117 17 92 17" transform="translate(104.500000, 13.000000) rotate(90.000000) translate(-104.500000, -13.000000)"/><polygon id="Rectangle" fill="#EFEFEF" points="164.128 51.12 188.712 51.127 188.714 58.911 164.13 58.904" transform="translate(176.420814, 55.015199) rotate(150.000000) translate(-176.420814, -55.015199)"/></g><g id="woman-check-phone" fill-rule="nonzero" transform="translate(466.000000, 79.000000)"><g id="Group" fill="#4B44BE" transform="translate(25.000000, 325.000000)"><path id="Path" d="M13.1035088,0.133333333 L4.1877193,2.13333333 C4.1877193,2.13333333 2.02631579,9.06666667 1.01315789,12.8 C0.945614035,13 0.742982456,13.6666667 0.607894737,14.0666667 C0.472807018,14.7333333 0.405263158,15.3333333 0.405263158,16 C0.607894737,19.3333333 1.89122807,22.2 4.86315789,23.6666667 C8.17280702,25.3333333 10.7394737,26.8666667 14.2517544,23.6666667 C17.7640351,20.4666667 18.3719298,18.4666667 16.8859649,12.9333333 C15.4,7.4 13.1035088,0.2 13.1035088,0.133333333"/><path id="Path" d="M64.8421053,11.6666667 C58.8307018,9.8 56.2640351,2.46666667 56.2640351,2.46666667 L44.1736842,1.86666667 C44.1736842,1.86666667 43.9035088,9.33333333 43.5657895,13.4 C43.1605263,18.8 44.1736842,21.2 47.8210526,20.8666667 C52.6842105,20.4666667 72.5421053,22.2 75.6491228,20.2666667 C79.8368421,17.8 70.5157895,13.4 64.8421053,11.6666667"/></g><path id="Path" fill="url(#linearGradient-5)" d="M20.2733541,154.067678 C20.2733541,154.067678 15.7672118,160.294049 14.3548389,177.07818 C12.9424659,193.86231 16.1034911,225.738623 17.5831199,231.897316 C19.0627487,238.056009 24.981264,295.649942 26.4608928,299.845974 C27.9405216,304.042007 29.9581972,326.984831 29.9581972,326.984831 L39.5085286,327.255543 C39.5085286,327.255543 42.3332745,297.34189 42.3332745,289.423571 C42.3332745,281.505251 46.30137,206.585764 46.0323465,201.103851 C45.7633231,195.621937 47.0411844,197.381564 47.0411844,197.381564 C47.0411844,197.381564 55.3809104,224.18203 57.869377,228.648775 C60.3578436,233.115519 64.7967301,241.845974 64.7967301,241.845974 C64.7967301,241.845974 65.8055679,269.932322 67.0161733,286.175029 C68.2267787,302.417736 69.5046399,328 69.5046399,328 L82.3505082,327.729288 C82.3505082,327.729288 85.3097658,284.956826 85.3097658,275.955659 C85.3097658,266.954492 88,245.365228 88,242.861144 C88,240.35706 79.660274,196.637106 79.660274,196.637106 L73.8090146,154 L20.2733541,154.067678 Z"/><path id="Path" fill="url(#linearGradient-6)" d="M35.4288832,12.2639909 C31.0619783,13.8932973 25.4857766,35.8210456 25.4857766,35.8210456 L25.4185935,35.7531578 L23,38.1971174 L24.0077473,42.8134854 L28.2402859,115.113956 L50.1419936,110.361812 L69.289192,89.859707 L81.2477932,95.5622793 C81.2477932,95.5622793 82.1883573,121.834845 82.3227236,123.260488 C82.4570899,124.686131 84.4725845,164.400474 84.4725845,166.980209 C84.5397676,169.763607 96.2296362,182.254956 98.1779476,180.897201 C103.955699,176.823935 94.3485079,169.288393 92.0642807,167.455423 C90.7206177,166.369219 87.8317421,129.438274 87.6301926,125.093457 C87.4286432,120.74864 94.2813247,109.682935 82.3899068,95.087065 C73.7232801,84.4286858 69.0204594,57.0699162 61.764679,25.9773196 C57.9352393,9.82003136 55.6510121,5 51.8887555,5 C48.4624148,5 43.7595941,9.1411537 35.4288832,12.2639909"/><path id="Path" fill="url(#linearGradient-7)" d="M31.6410327,73.8094521 C31.5736677,74.0120254 23.2877827,77.9284427 19.717442,82.317531 C16.1471013,86.7066194 13.2504098,93.0539164 13.2504098,93.0539164 C13.2504098,93.0539164 7.99594613,105.478413 4.3582405,114.661736 C2.40465786,119.59102 -3.99500944,139.780826 3.68459132,140.523595 C10.9600026,141.198839 27.0602182,124.047632 29.5527202,120.80646 L32.3146819,114.594211 C32.5167766,113.783918 28.003327,105.410888 28.1380569,104.668119 C28.2727867,103.45268 38.7817141,97.3079558 40.3984721,100.954275 C40.9373915,102.169715 42.3520548,105.680986 42.7562443,106.761377 C43.7667181,109.39483 28.4748815,114.526687 28.4748815,116.890042 C28.4748815,119.793593 27.194948,130.529978 25.1066355,135.796884 C23.018323,141.06379 19.8521719,153.555811 19.8521719,153.555811 L73.6093771,153.69086 C73.6093771,153.69086 71.7905243,129.719685 72.5315384,121.751802 C72.5315384,121.751802 74.8219457,95.6198449 76.1692441,93.0539164 C77.5165424,90.4879878 79.8069497,125.330597 79.4701251,132.488187 C79.2006654,137.484995 83.714115,167.465845 84.9940484,168.546236 C87.0823609,170.166822 92,166.925649 92,166.925649 C92,166.925649 91.7979052,134.041249 91.5958105,128.57177 C91.3937157,123.10229 91.7305403,78.8737848 84.522494,70.9059014 C77.3144477,62.9380179 75.360865,63.1405912 69.3653872,65.2338487 C63.3699095,67.3271063 60.405853,69.3528393 52.2546978,70.7033281 C47.2696938,71.5811457 42.0825951,70.9059014 37.4344157,68.8801683 C38.7143491,64.2209822 36.0197524,72.1213412 36.356577,69.9605593"/><path id="Path" fill="url(#linearGradient-8)" d="M39.4854894,0.270365531 C39.4854894,0.270365531 28.7151753,0.675913828 25.6669732,11.1525782 C22.6187711,21.6292425 22.1446063,36.364164 22.0768685,38.662271 C21.9413928,41.0955608 23.2284115,57.5878582 21.873655,62.1840722 C20.6543742,66.2395552 17.1997451,73.7421987 15.0998726,78.9467352 C14.2870187,80.9744766 13.6773782,83.1374009 13.2709513,85.3003251 L13,87.0577011 C13.5419026,88.8826684 15.5062995,89.9641306 17.4029586,89.3558081 C17.5384342,89.2882167 17.6739099,89.2882167 17.7416477,89.2206253 C18.8254529,88.7474857 19.8415203,88.2067546 20.8575876,87.5984322 C24.1090032,85.6382821 28.2410105,80.4337456 31.4924261,78.8115524 C34.9470552,77.1217678 38.875849,69.2811674 39.4177516,68.672845 C39.9596542,68.0645225 39.7564407,66.1043724 39.8241785,64.2118137 C40.1628676,54.4110632 38.3339464,45.4214093 36.0308603,40.6900125 C33.7277743,35.9586157 28.444224,26.6985962 32.1020665,21.358877 C35.759909,16.0191577 43.4142832,11.7609006 43.7529723,10.4766643 C44.0916615,9.19242807 44.2948749,15.6136094 48.3591444,17.9117165 C52.4234139,20.2098235 58.1133911,26.3606393 58.1133911,27.712467 C58.1133911,29.0642946 59.4681476,33.4577345 55.6070916,41.0955608 C51.7460356,48.733387 48.6978335,58.4665462 54.0491217,65.7664155 C59.4004098,73.0662848 72.8802369,83.2049923 73.8285664,85.5030993 C74.776896,87.8012063 73.8285664,98.0075051 73.4898773,103.752773 C73.1511882,109.49804 84.3956671,93.9520221 83.9892401,86.4493786 C83.5828132,78.9467352 84.9375697,75.7023488 77.2831955,64.2794051 C69.6288213,52.8564614 64.6162223,33.1197776 64.4130088,28.3207894 C64.2097954,23.5218012 61.9067093,10.2738902 57.3005373,6.42118137 C53.3717434,3.17679499 52.4911517,0 44.2948749,0 C42.6691671,0 41.0434594,0.135182766 39.4854894,0.270365531"/><g id="Group" transform="translate(12.000000, 47.000000)"><g id="Path"><g fill="#000" opacity=".07"><g><path d="M23.575,13.9488789 C21.935,14.626009 20.3633333,15.370852 18.86,16.2511211 L17.22,17.0636771 C17.22,17.0636771 -0.136666667,35.0076233 0.615,34.0596413 C3.96333333,29.929148 14.35,7.99013453 17.835,2.91165919 C21.525,-2.36995516 23.575,-0.270852018 27.6066667,13.7457399" transform="translate(0.000000, 39.273543)"/></g></g><g fill="#000" opacity=".07"><path d="M21.3883333,212.009417 C21.4566667,212.212556 21.4566667,212.415695 21.4566667,212.618834 C21.525,214.10852 21.4566667,217.832735 19.8166667,220.202691 C17.7666667,223.317489 22.6183333,230.156502 22.6183333,231.849327 C22.6183333,233.542152 20.3633333,235.099552 18.7916667,234.625561 C17.22,234.15157 10.66,230.495067 13.2566667,222.640359 C14.2816667,219.457848 14.8966667,216.681614 15.5116667,214.921076 C15.8533333,214.040807 16.1266667,213.160538 16.4,212.280269 C16.4683333,211.873991 16.4683333,211.467713 16.4683333,211.061435 C16.4,210.519731 16.4,209.910314 16.3316667,209.300897 C15.99,206.253812 3.00666667,111.252466 2.52833333,107.595964 C2.11833333,104.34574 0.205,84.2349776 0.41,72.4529148 C0.273333333,71.4372197 0.273333333,70.4215247 0.341666667,69.4735426 C0.341666667,69.2026906 0.478333333,68.0515695 0.41,67.5775785 C0.478333333,66.4941704 0.546666667,65.4107623 0.683333333,64.3273543 C0.478333333,63.4470852 0.615,63.4470852 0.683333333,62.0251121 C0.751666667,60.603139 0.683333333,59.790583 0.82,58.9103139 C2.11833333,50.9201794 5.05666667,41.8466368 6.49166667,39.2735426 L6.90166667,37.8515695 C6.90166667,37.8515695 10.1816667,25.7986547 11.275,23.5641256 C12.2316667,21.5327354 14.965,10.9017937 14.6916667,8.66726457 C14.555,7.44843049 18.9283333,2.70852018 18.9283333,2.70852018 L19.8166667,1.96367713 C20.2266667,1.89596413 20.705,1.96367713 21.115,2.09910314 C22.0716667,2.50538117 25.7616667,-0.677130045 26.3766667,1.35426009 C30.75,15.235426 32.5266667,21.1264574 24.805,29.3874439 C17.0833333,37.6484305 24.19,45.029148 24.3266667,50.8524664 C24.6683333,65.2076233 17.63,63.6502242 17.22,72.5883408 C16.81,81.5264574 18.7916667,87.9591928 18.9283333,92.6313901 C19.27,108.002242 19.065,111.049327 18.245,117.075785 C17.425,123.102242 13.2566667,134.54574 17.9033333,157.026457 C22.55,179.507175 21.8666667,181.538565 21.3883333,194.26861 C20.91,206.998655 21.3883333,212.009417 21.3883333,212.009417" transform="translate(0.000000, 39.273543) translate(1.366667, 27.762332)"/></g><path fill="#EFEFEF" d="M15.58,7.5161435 L15.7166667,7.44843049 C16.2633333,7.17757848 19.475,5.55246637 21.73,4.67219731 C24.2583333,3.65650224 27.3333333,12.1883408 28.085,13.8811659 C28.1533333,14.0165919 28.1533333,14.0165919 27.6066667,14.0843049 C25.7616667,14.2874439 23.9166667,14.626009 22.14,15.1 C19.5433333,15.709417 16.605,17.7408072 16.4683333,17.8085202 C16.3316667,17.8762332 15.58,16.2511211 14.0766667,12.4591928 C13.735,11.5789238 12.9833333,9.27668161 13.6666667,8.73497758 L15.58,7.5161435 Z" transform="translate(0.000000, 39.273543)"/></g><path id="Path" fill="#000" d="M35.1916667,1.4896861 C36.8316667,2.09910314 38.745,1.69282511 39.975,0.406278027 C42.1616667,-1.76053812 39.155,5.75560538 39.6333333,7.44843049 C40.1116667,9.14125561 35.1916667,1.4896861 35.1916667,1.4896861 Z" opacity=".07"/><path id="Path" fill="#EFEFEF" d="M20.3633333,66.6295964 C20.3633333,66.6295964 30.6816667,59.926009 30.8183333,60.196861 C31.0916667,60.806278 31.98,63.2439462 31.98,63.2439462 C31.98,63.2439462 32.8,64.8013453 32.5266667,65.2753363 C32.2533333,65.7493274 22.4816667,69.8798206 22.4816667,69.8798206 C22.0716667,69.8121076 21.73,69.6089686 21.5933333,69.2704036 C21.115,68.4578475 20.705,67.5775785 20.3633333,66.6295964 Z"/></g></g><g id="motorcycle" fill-rule="nonzero" transform="translate(12.000000, 233.000000)"><ellipse id="Oval" cx="219.985" cy="14.945" fill="url(#linearGradient-9)" rx="10.75" ry="2.928" transform="translate(219.985107, 14.945300) rotate(-51.470000) translate(-219.985107, -14.945300)"/><path id="Path" fill="url(#linearGradient-10)" d="M226.391903,6.34535532 L193.248583,6 C193.598381,13.7826551 195.794332,24.4838059 197.276113,33.8910903 C199.2583,46.4795349 196.304453,50.8718709 196.790283,57.7887057 C196.790283,57.7887057 198.981377,70.275003 199.268016,74.6965239 C200.390283,92.1004864 202.450202,103.317238 201.153036,114.495077 C201.094737,115.57492 201.109312,117.301697 199.919028,118.527465 C197.9417,120.560683 193.253441,122.632815 182.390283,122.773876 C160.663968,123.065725 105.201619,131.305612 109.394332,97.3586428 C113.587045,63.411674 132.019433,49.8941749 132.019433,49.8941749 L84.9425101,48.921343 C84.9425101,48.921343 89.4072874,71.0046269 56.0647773,77.2648001 C22.7222672,83.5249733 0.753036437,110.866414 0,129 L240,129 C240,129 231.255061,75.9417487 212.992713,55.4976866 C194.730364,35.0536244 226.391903,6.34535532 226.391903,6.34535532 Z"/><circle id="Oval" cx="56" cy="123" r="34" fill="url(#linearGradient-11)"/><ellipse id="Oval" cx="56" cy="123.5" fill="#FFF" rx="18" ry="18.5"/><circle id="Oval" cx="247" cy="123" r="34" fill="url(#linearGradient-12)"/><ellipse id="Oval" cx="247" cy="123.5" fill="#FFF" rx="18" ry="18.5"/><path id="Path" fill="url(#linearGradient-13)" d="M65,54 L140.675699,54 C140.675699,54 142.550515,41.5429096 137.28456,41.1670491 C132.018605,40.7911886 81.0885345,41.1670491 81.0885345,41.1670491 C81.0885345,41.1670491 70.2465772,41.9187701 65,54 Z"/><circle id="Oval" cx="193" cy="6" r="6" fill="#FFF"/><path id="Path" fill="url(#linearGradient-14)" d="M89.4173616,128.971071 L103.575191,129 C103.575191,129 117.112404,101.714996 101.417577,83.3353472 C97.0926508,78.2727471 90.7507189,75.620909 84.0596898,75.215901 C63.9429653,74.0201631 49.8627127,77.8966683 35.9957972,84.2321507 C24.4952353,89.6221396 14.6572946,97.9783641 7.50558919,108.431379 C0.368491459,119.101411 0,129 0,129 L0,129 L89.4173616,128.971071 Z"/><path id="Path" fill="url(#linearGradient-15)" d="M212.746719,126 L272,99.3157128 C272,99.3157128 257.926491,80.7644323 232.352943,91.1680257 C229.974231,92.2782294 227.710488,93.6206438 225.594534,95.1758069 C220.081351,99.442944 209.035454,109.55782 212.746719,126 Z"/><path id="Path" fill="url(#linearGradient-16)" d="M81.9988215,136 C81.9988215,136 82.4262615,144.351319 67,148 L81.9988215,136 Z"/><path id="Path" fill="url(#linearGradient-17)" d="M275.72715,125 C275.72715,125 278.702882,132.902352 265,141 L275.72715,125 Z"/></g><g id="man-with-ipad" fill-rule="nonzero" transform="translate(82.000000, 92.000000)"><g id="Group" fill="#4B44BE" transform="translate(33.000000, 321.000000)"><path id="Path" d="M15.8283582,0.526315789 L13.9477612,0.473684211 L4.17910448,0.578947368 C4.17910448,0.578947368 2.03731343,10.6842105 0.888059701,14.8947368 C0.835820896,15.1578947 0.574626866,15.8421053 0.470149254,16.3684211 C0.313432836,17.1052632 0.26119403,17.8421053 0.26119403,18.5789474 C0.470149254,22.4210526 1.88059701,25.6315789 5.2761194,27.3684211 C8.98507463,29.2631579 11.858209,31 15.8283582,27.3684211 C19.7985075,23.7368421 20.3208955,21.4210526 18.8059701,15.1052632 C17.2910448,8.78947368 16.7686567,0.736842105 15.8283582,0.526315789 Z"/><path id="Path" d="M56.7313433,13.1052632 L56.7313433,13.1052632 C49.9925373,10.9473684 45.5,1.73684211 45.5,1.73684211 L34.0074627,1.05263158 C34.0074627,1.05263158 33.380597,10.4210526 33.0671642,15.1578947 C32.6492537,21.4736842 33.6940299,24.2631579 37.8208955,23.9473684 C43.2537313,23.5263158 65.3507463,25.5263158 68.8507463,23.2631579 C73.3955224,20.3157895 63,15.1052632 56.7313433,13.1052632 Z"/></g><path id="Path" fill="url(#linearGradient-18)" d="M21,155.104669 L21,168.868693 L37.564717,320.639298 L49.2850356,320.639298 C49.2850356,320.639298 53.3480794,216.545597 53.3480794,212.934503 C53.3480794,209.32341 54.3898855,198.019116 54.3898855,198.019116 C54.3898855,198.019116 69.1314417,240.776559 69.3918933,244.335318 C69.6523448,247.894077 66.9957392,321.528988 66.9957392,321.528988 L78.7160579,322 C78.7160579,322 88.9778479,272.177374 88.9778479,267.467252 C88.9778479,262.757129 92.4678984,238.264494 91.9469953,233.554372 C91.4260923,228.844249 82.7270113,155.471012 82.7270113,155.471012 L64.7558561,155 L21,155.104669 Z"/><path id="Shape" fill="url(#linearGradient-19)" d="M97.0525236,139.376309 L96.8952518,139.166801 C96.9476757,139.323932 97.0000997,139.428687 97.0525236,139.376309 M62.4002881,126.020145 L55.7948695,128.743755 L55.4279018,137.857373 L62.7148318,140.738114 C62.7148318,140.685737 70.6832733,140.423852 70.6832733,140.371475 C70.7356972,140.004835 73.8287107,140.109589 75.2441575,141 L99.9358413,132.514907 L100.827049,126.596293 C100.827049,126.596293 102.661887,134.033844 94.3789018,119.053989 L62.4002881,126.020145 Z M91.9149759,95.9556809 L91.3907363,92.9701853 L90.1325613,92.7606769 L91.9149759,95.9556809 M46.2537093,16.6043513 C43.2131198,17.8614021 41.745249,22.3134569 41.745249,22.3134569 C41.745249,22.3134569 40.2773782,21.4230459 40.2773782,23.9371475 C40.2773782,26.451249 41.5355532,32.1079774 42.4267605,33.5745367 C43.9994792,36.0362611 45.414926,38.5503626 46.673101,41.1692184 C47.878852,43.7880741 47.4594603,49.1305399 46.2012854,49.9161966 C44.9431104,50.7018533 22.5056568,70.8146656 22.5056568,70.8146656 L4,127.591459 L4,129.843674 L6.83089368,130.83884 L9.76663527,133.352941 C10.0287551,133.405318 13.750856,135.448026 14.2750956,135.814666 C17.2108372,137.281225 20.3562746,138.381144 23.554136,139.114424 C25.6510942,139.533441 34.9301346,139.323932 34.9301346,139.323932 L44.3140229,139.114424 L42.6888803,127.172442 L28.7965317,127.01531 L9.81905922,126.072522 L29.0586514,81.8662369 L89.7655936,92.7082998 C78.9662585,73.2240129 66.8563244,51.3303787 65.8078453,49.0257857 C64.916638,47.1402095 65.8602692,42.6357776 66.3845088,40.2788074 C66.8563244,38.1313457 67.9048036,35.5124899 68.9008587,34.7268332 C69.8969139,33.9411765 71.6793285,30.4842869 71.6793285,28.9653505 C71.6793285,27.4464142 72.0987201,21.5278002 70.8405451,22.7848509 C70.4735775,23.1514907 69.0057067,20.8992748 68.4814671,18.6470588 C67.6426838,15.3996777 65.3884536,13.0950846 62.7672558,11 C62.7672558,11 49.3991467,15.3996777 46.4109812,16.6567284"/><path id="Path" fill="url(#linearGradient-20)" d="M22.7587154,57.8793947 C19.8381294,59.8749444 17.1261567,62.553182 16.1352436,66.0191366 C15.1443305,69.4850912 8.10363214,96.4775256 7.16487236,99.8909657 C4.87012623,108.240765 3.51413988,110.656431 0.802167185,120.476636 C-2.53564537,132.554962 5.13089284,134.392968 12.953891,136.17846 C21.0898091,138.016466 21.1419624,138.804183 23.0716353,138.804183 C23.3845552,138.804183 33.0329196,140.799733 33.3458396,135.285714 C33.5544528,131.81976 32.928613,126.305741 31.62478,126.463284 C28.6520407,126.8834 19.0558296,124.310191 18.5864497,123.995105 C17.9606098,123.574989 20.6725825,116.012906 22.2371822,111.339119 C23.3845552,107.873164 27.8175875,93.4842012 28.8085006,90.8059635 C29.3300338,89.3355585 26.3051412,104.774811 24.479775,119.898976 C24.4276216,120.476636 23.6974752,126.358255 23.9060884,126.358255 C26.0965279,126.358255 32.0941599,126.463284 33.9716794,126.673342 C42.4205174,127.671117 44.0372704,131.714731 43.5157372,134.970628 C42.5769774,140.64219 22.0285689,138.016466 22.1328755,138.751669 C22.1328755,138.751669 18.5864497,154.821095 20.5682759,155.81887 C22.2893355,156.711615 45.3411034,166.374277 50.2435156,168.264798 C50.7650488,168.474855 51.3908887,168.212283 51.599502,167.634624 C51.599502,167.634624 51.599502,167.634624 51.599502,167.582109 L54.7287012,158.549622 C54.7808545,158.444593 54.8851612,158.392078 54.9894678,158.444593 C55.0416211,158.444593 55.0937745,158.497107 55.0937745,158.549622 L58.0665138,168.422341 C58.1186671,168.684913 58.3272804,168.894971 58.5358937,169 L59.8397267,169 L85.4470074,163.433467 C85.4470074,163.433467 85.3427007,153.245661 85.2905474,140.222074 C85.2905474,138.909212 85.0819341,134.077882 84.1431743,134.970628 C83.2044145,135.863373 61.8215529,138.699154 59.4746534,137.70138 C54.5200879,135.600801 55.823921,130.401869 57.5449806,128.248776 C59.5268068,125.780596 84.7690142,124.572764 84.8733208,122.734757 C85.2905474,114.752559 84.6647075,93.7992879 84.247481,96.3199822 C83.6216411,100.258567 68.8622512,121.789497 68.8622512,125.518024 C68.8622512,129.246551 68.6014846,138.699154 68.6014846,138.699154 L92.852779,136.808634 C92.852779,136.808634 100.988697,133.972853 101.718844,129.246551 C102.44899,124.520249 101.562384,122.419671 101.249464,115.382733 C101.04085,110.919003 94.7824518,84.0841121 93.0092389,76.4695149 C92.7484723,75.3141967 92.5920123,74.1588785 92.4877057,73.0035603 C92.2790924,69.8526925 91.0274127,62.5006676 84.2996343,59.2972853 C75.9551029,55.306186 69.4359378,52.1553182 67.7670315,52.1553182 C66.2024319,52.1553182 61.9258595,61.6079217 59.6832667,64.2861593 C58.6923536,65.493992 58.9009669,66.0716511 57.5971339,67.8571429 C56.9191407,68.8024032 55.667461,68.9599466 54.7287012,68.329773 C54.5200879,68.1722296 54.363628,67.9621718 54.207168,67.7521139 C53.4770215,66.7018247 52.8511817,65.5465065 52.2774951,64.3911883 C51.286582,62.3956386 43.6200438,51 43.6200438,51 C43.6200438,51 25.6793014,55.8313307 22.7587154,57.8793947"/><path id="Path" fill="url(#linearGradient-21)" d="M62.2368431,10.4427177 C62.2368431,10.4427177 45.839113,16.6137395 44.6902275,17.5103837 C43.5413419,18.4070279 41.348015,21.7826296 41.348015,21.7826296 C41.348015,21.7826296 40.1991294,21.1497043 39.9380191,22.8902489 C39.9380191,22.8902489 38.2669128,19.4091597 38.0580245,17.4576399 C37.8491362,15.5061202 38.0580245,10.4954614 41.1913488,7.17260352 C44.324673,3.84974559 50.6435435,-0.527987864 54.5601988,0.0521936783 C58.4768541,0.632375221 60.1479603,1.10706921 62.6023976,3.58602671 C65.0568349,6.06498421 67.1457178,6.80339708 67.8768268,7.17260352 C68.6079357,7.54180995 71.4279275,9.59881724 71.8979262,13.4491129 C72.3679248,17.2994086 71.0623731,25 71.0623731,25 C71.0623731,25 71.4279275,21.9936047 70.2268199,22.9429927 C69.3912668,23.575918 68.1901592,20.8332417 67.8246047,19.1981846 C67.3546061,17.6158713 63.1246183,10.8646679 62.2368431,10.4427177 Z"/><g id="Group" fill="#000" opacity=".07" transform="translate(57.000000, 40.000000)"><g id="Path"><path d="M11.1652174,12.4027778 C11.0608696,12.0861111 12.9391304,13.5111111 10.7478261,11.9277778 C7.66956522,9.65833333 9.13043478,0.369444444 9.13043478,0.369444444 C7.9826087,2.79722222 6,4.69722222 3.54782609,5.64722222 C-0.365217391,7.125 -1.56521739,6.01666667 4.48695652,9.55277778 C10.4347826,13.0361111 7.35652174,14.25 6.93913043,18.8416667"/></g></g><g id="Group" transform="translate(21.000000, 78.000000)"><g id="Path" fill="#000" opacity=".07"><g><path d="M12.6728682,7.1851272 L20.7751938,38.1808219 C20.7751938,38.1808219 20.7232558,43.6876712 19.1131783,44.5268102 C17.5031008,45.3659491 12.4131783,45.890411 11.2186047,46.4148728 C10.024031,46.9393346 -2.38914729,49.5616438 0.831007752,45.1561644 C1.55813953,44.1596869 18.3860465,38.2332681 10.8550388,31.9921722 C3.32403101,25.7510763 4.6744186,17.097456 8.31007752,11.118591 C11.9457364,5.13972603 11.1666667,0.052446184 11.1666667,0.052446184 L12.6728682,7.1851272 Z" transform="translate(46.224806, 0.000000)"/></g></g><g id="Path" fill="#000" opacity=".07"><g><path d="M24.5667624,9.70254403 C24.5667624,9.70254403 17.5550388,47.2540117 21.1906977,62.2536204 C26.696124,85.0152642 18.7496124,115.801174 18.7496124,130.590998 C18.7496124,140.18865 22.4891473,166.726419 22.7488372,177.530333 C22.8007752,180.781996 25.1379845,187.075538 23.424031,188.544031 C22.6968992,189.173386 18.2302326,187.704892 15.7891473,186.551076 C14.4906977,185.921722 13.7635659,184.558121 13.9193798,183.194521 L15.3736434,176.796086 L17.4511628,168.299804 L2.90852713,30.8908023 C2.90852713,30.8908023 -1.76589147,0.314677104 0.882945736,0.208931184 C3.53178295,0.104892368 24.6186047,9.70254403 24.5667624,9.70254403" transform="translate(0.000000, 79.193738)"/></g></g><path id="Path" fill="#FFF" d="M17.9186047,38.3906067 L45.3937984,41.8520548 C45.9651163,42.0093933 46.3286822,42.5338552 46.2767442,43.1632094 L45.4976744,68.2324853 C45.4457364,69.0191781 44.9782946,70.0681018 44.2511628,69.858317 L16.9317829,64.5612524 C16.4124031,64.4039139 16.0488372,63.9318982 16.0488372,63.3549902 L15.9449612,60.6277886 L18.9573643,59.8410959 C19.7364341,59.6313112 20.4635659,59.2117417 21.0868217,58.739726 C21.2426357,58.6348337 21.3465116,58.5299413 21.4503876,58.3726027 L22.0736434,57.4285714 C22.2813953,57.1663405 22.3333333,56.7992172 22.2813953,56.4320939 C22.1775194,55.8551859 22.0217054,55.0684932 21.9178295,54.6489237 C21.8658915,54.4915851 21.8139535,54.3342466 21.7620155,54.2293542 L21.0868217,52.7608611 C20.7751938,52.0790607 20.255814,51.5545988 19.5806202,51.2399217 L19.1651163,51.030137 L16.2046512,49.4043053 L16.4643411,39.5968689 C16.4643411,38.9150685 17.0356589,38.3906067 17.7108527,38.3906067 C17.8147287,38.3906067 17.8666667,38.3906067 17.9186047,38.3906067 Z"/></g></g><g id="CLOUDWP" fill-rule="nonzero" transform="translate(249.000000, 41.000000)"><g id="cloud-(1)" fill="#FFF"><path id="Path" d="M137.747307,41.3491652 C135.602663,41.3491652 133.462314,41.5629651 131.360621,41.9891306 C129.775761,34.0613105 124.651809,27.2986286 117.45766,23.6382001 C110.264943,19.9777712 101.793743,19.8242369 94.4721759,23.2206442 C87.8464008,4.92854456 67.6798774,-4.51596456 49.4289306,2.12475063 C31.1779838,8.76546582 21.7547229,28.9788961 28.3804981,47.269561 C12.3930236,47.7760804 -0.235749602,61.0388572 0.0033394275,77.06812 C0.243860037,93.0988183 13.2649114,105.974172 29.2609761,106 L137.747307,106 C155.558731,106 170,91.5276032 170,73.6745826 C170,55.8215624 155.558731,41.3491652 137.747307,41.3491652 Z"/></g><g id="whatsapp-(1)" transform="translate(41.000000, 23.000000)"><path id="Path" fill="#ECEFF1" d="M64.9791916,10.9218333 C57.7592814,3.9425 48.2593996,0 38.1420255,0 C9.1040534,0 -9.12938642,31.4608333 5.37059985,56.487 L0,76 L20.0605838,70.7686667 C28.800475,75.4901667 35.9602193,75.0721667 38.1610252,75.3508333 C71.831773,75.3508333 88.5927311,34.6148333 64.9316922,11.0453333 L64.9791916,10.9218333 Z"/><path id="Path" fill="#4CAF50" d="M37.3687256,69.0333333 L37.3496039,69.0301963 L37.2986127,69.0301963 C27.1577367,69.0301963 20.6786667,64.3027454 20.0412766,64.0298268 L8.09021276,67.0883966 L11.2930979,55.6540511 L10.5314167,54.4776781 C7.37633589,49.5337745 5.7,43.8401291 5.7,37.9770861 C5.7,10.393492 39.9437815,-3.39987357 59.7602388,16.0965483 C79.5288918,35.3890655 65.6497231,69.0333333 37.3687256,69.0333333 Z"/><path id="Path" fill="#FAFAFA" d="M55.0483907,44.9942211 L55.0197594,45.2273641 C54.0622009,44.7610781 49.3984779,42.5322308 48.5299947,42.224482 C46.5798841,41.5188358 47.1302416,42.1125733 43.3859019,46.3029306 C42.8291819,46.9091024 42.2756432,46.955731 41.3308098,46.5360736 C40.3764326,46.0697876 37.312882,45.0905869 33.6862488,41.9198418 C30.8612925,39.4485257 28.9652632,36.4176664 28.4053619,35.4850943 C27.4732536,33.9121561 29.4233642,33.6883388 31.1985057,30.405685 C31.5166314,29.7528845 31.3543873,29.2399699 31.1189743,28.7767924 C30.88038,28.3105064 28.9811695,23.7409031 28.1858552,21.919279 C27.4223535,20.103872 26.6365829,20.3339064 26.0480504,20.3339064 C24.2156462,20.1784777 22.876337,20.2033463 21.6960906,21.4032558 C16.5615415,26.9178654 17.8563132,32.6065551 22.2496293,38.6558394 C30.8835613,49.697493 35.4836591,51.7305002 43.8949031,54.553085 C46.1663207,55.2587312 48.2373191,55.1592569 49.8756665,54.9292224 C51.7017081,54.6463422 55.4969479,52.6879408 56.289081,50.4963964 C57.1003015,48.304852 57.1003015,46.4863364 56.8617073,46.066679 C56.6262942,45.6470215 56.0027678,45.4138785 55.0483907,44.9942211 L55.0483907,44.9942211 Z"/></g></g></g></svg>